<svg width="418" height="590" viewBox="0 0 418 590" fill="none" xmlns="http://www.w3.org/2000/svg">
<g filter="url(#filter0_i)">
<path fill-rule="evenodd" clip-rule="evenodd" d="M241.19 0.0162379C283.214 1.07305 305.446 57.425 337.922 87.5725C364.845 112.566 406.78 124.749 416.332 162.605C426.152 201.53 389.576 236.592 385.67 276.825C382.358 310.948 399.319 343.393 395.477 377.444C390.274 423.558 385.684 472.477 359.544 508.382C329.739 549.322 287.876 584.025 241.19 589.37C193.664 594.811 149.586 563.959 108.122 537.167C66.5324 510.295 6.27424 487.542 0.454851 433.821C-6.13932 372.949 60.8398 334.24 79.9195 276.825C90.609 244.659 75.8914 208.076 86.2137 175.757C97.6643 139.905 118.126 109.647 141.939 82.644C171.445 49.1837 199.389 -1.03493 241.19 0.0162379Z" fill="#F5E8D4"/>
</g>
<defs>
<filter id="filter0_i" x="0" y="0" width="418" height="594" filterUnits="userSpaceOnUse" color-interpolation-filters="sRGB">
<feFlood flood-opacity="0" result="BackgroundImageFix"/>
<feBlend mode="normal" in="SourceGraphic" in2="BackgroundImageFix" result="shape"/>
<feColorMatrix in="SourceAlpha" type="matrix" values="0 0 0 0 0 0 0 0 0 0 0 0 0 0 0 0 0 0 127 0" result="hardAlpha"/>
<feOffset dy="4"/>
<feGaussianBlur stdDeviation="8"/>
<feComposite in2="hardAlpha" operator="arithmetic" k2="-1" k3="1"/>
<feColorMatrix type="matrix" values="0 0 0 0 0 0 0 0 0 0 0 0 0 0 0 0 0 0 0.25 0"/>
<feBlend mode="normal" in2="shape" result="effect1_innerShadow"/>
</filter>
</defs>
</svg>
