<svg width="1341" height="1134" viewBox="0 0 1341 1134" fill="none" xmlns="http://www.w3.org/2000/svg">
<g opacity="0.15">
<circle opacity="0.91" cx="51.3956" cy="1115.96" r="13.05" transform="rotate(26 51.3956 1115.96)" fill="#D4558C"/>
<circle opacity="0.8" cx="662.79" cy="1095.37" r="16.24" transform="rotate(-83 662.79 1095.37)" fill="#D4558C"/>
<circle opacity="0.71" cx="1322.69" cy="1049.67" r="12.615" transform="rotate(-136 1322.69 1049.67)" fill="#D4558C"/>
<rect opacity="0.77" x="1108.34" y="1057.51" width="31.32" height="31.32" rx="8" transform="rotate(-92 1108.34 1057.51)" fill="#383593"/>
<circle opacity="0.84" cx="437.152" cy="974.998" r="8.845" transform="rotate(-158 437.152 974.998)" fill="#D4558C"/>
<circle opacity="0.93" cx="1269.35" cy="918.408" r="12.76" transform="rotate(6 1269.35 918.408)" fill="#D4558C"/>
<circle opacity="0.82" cx="1104.64" cy="843.754" r="8.845" transform="rotate(-3 1104.64 843.754)" fill="#D4558C"/>
<circle opacity="0.73" cx="17.6935" cy="838.754" r="13.92" transform="rotate(161 17.6935 838.754)" fill="#D4558C"/>
<rect opacity="0.92" x="703.692" y="734.384" width="19.72" height="19.72" rx="8" transform="rotate(153 703.692 734.384)" fill="#383593"/>
<circle opacity="0.84" cx="537.46" cy="705.75" r="10.585" transform="rotate(-96 537.46 705.75)" fill="#D4558C"/>
<rect opacity="0.77" x="600.692" y="678.256" width="17.4" height="17.4" rx="8" transform="rotate(18 600.692 678.256)" fill="#383593"/>
<circle opacity="0.84" cx="1047.77" cy="690.767" r="16.095" transform="rotate(-118 1047.77 690.767)" fill="#D4558C"/>
<circle cx="1226.5" cy="648.501" r="8.845" transform="rotate(133 1226.5 648.501)" fill="#D4558C"/>
<rect opacity="0.93" x="97.1954" y="523" width="24.36" height="24.36" rx="8" transform="rotate(56 97.1954 523)" fill="#383593"/>
<circle opacity="0.96" cx="234.625" cy="523.054" r="14.5" transform="rotate(80 234.625 523.054)" fill="#D4558C"/>
<circle opacity="0.89" cx="435.56" cy="504.675" r="14.21" transform="rotate(-122 435.56 504.675)" fill="#D4558C"/>
<circle opacity="0.89" cx="657.549" cy="327.549" r="12.035" transform="rotate(69 657.549 327.549)" fill="#D4558C"/>
<rect opacity="0.84" x="1271" y="307.128" width="27.55" height="27.55" rx="8" transform="rotate(99 1271 307.128)" fill="#383593"/>
<circle opacity="0.89" cx="1157.05" cy="313.116" r="16.675" transform="rotate(-108 1157.05 313.116)" fill="#D4558C"/>
<circle opacity="0.98" cx="471.982" cy="294.855" r="15.225" transform="rotate(102 471.982 294.855)" fill="#D4558C"/>
<circle cx="905.5" cy="269.5" r="14.5" fill="#D4558C"/>
<rect opacity="0.99" x="655.692" y="153" width="33.93" height="33.93" rx="8" transform="rotate(24 655.692 153)" fill="#383593"/>
<circle opacity="0.97" cx="282.414" cy="161.664" r="13.775" transform="rotate(-128 282.414 161.664)" fill="#D4558C"/>
<rect opacity="0.95" x="1264" y="143" width="19.72" height="19.72" rx="8" transform="rotate(-78 1264 143)" fill="#383593"/>
<circle opacity="0.93" cx="871.185" cy="50.5013" r="12.18" transform="rotate(130 871.185 50.5013)" fill="#D4558C"/>
<rect opacity="0.93" x="179.387" width="17.69" height="17.69" rx="8" transform="rotate(16 179.387 0)" fill="#383593"/>
</g>
</svg>
