<?xml version="1.0" encoding="UTF-8" standalone="no"?>
<svg
   xmlns:dc="http://purl.org/dc/elements/1.1/"
   xmlns:cc="http://creativecommons.org/ns#"
   xmlns:rdf="http://www.w3.org/1999/02/22-rdf-syntax-ns#"
   xmlns:svg="http://www.w3.org/2000/svg"
   xmlns="http://www.w3.org/2000/svg"
   xmlns:sodipodi="http://sodipodi.sourceforge.net/DTD/sodipodi-0.dtd"
   xmlns:inkscape="http://www.inkscape.org/namespaces/inkscape"
   height="494.77423"
   width="750.59692"
   id="svg733"
   version="1.1">
  <metadata
     id="metadata739">
    <rdf:RDF>
      <cc:Work
         rdf:about="">
        <dc:format>image/svg+xml</dc:format>
        <dc:type
           rdf:resource="http://purl.org/dc/dcmitype/StillImage" />
      </cc:Work>
    </rdf:RDF>
  </metadata>
  <defs
     id="defs737">
    <clipPath
       id="clipPath26"
       clipPathUnits="userSpaceOnUse">
      <path
         id="path24"
         d="M 0,720 H 720 V 0 H 0 Z" />
    </clipPath>
  </defs>
  <sodipodi:namedview
     id="namedview735"
     inkscape:window-height="480"
     inkscape:window-width="640"
     inkscape:pageshadow="2"
     inkscape:pageopacity="0"
     guidetolerance="10"
     gridtolerance="10"
     objecttolerance="10"
     borderopacity="1"
     bordercolor="#666666"
     pagecolor="#ffffff" />
  <inkscape:clipboard
     max="1364.971,669.70804"
     min="614.37413,174.9338"
     style="font-variation-settings:normal;opacity:1;vector-effect:none;fill:#000000;fill-opacity:1;stroke-width:1.33333331;stroke-linecap:butt;stroke-linejoin:miter;stroke-miterlimit:4;stroke-dasharray:none;stroke-dashoffset:0;stroke-opacity:1;stop-color:#000000;stop-opacity:1" />
  <g
     transform="matrix(1.3333333,0,0,-1.3333333,-103.32506,729.23522)"
     clip-path="url(#clipPath26)"
     id="g22">
    <g
       transform="translate(444.9902,364.0977)"
       id="g28">
      <path
         id="path30"
         style="fill:#da184b;fill-opacity:1;fill-rule:nonzero;stroke:none"
         d="M 0,0 0.165,-0.336 C 0.132,-0.237 0.074,-0.125 0,0" />
    </g>
    <g
       transform="translate(444.9834,364.1133)"
       id="g32">
      <path
         id="path34"
         style="fill:#da184b;fill-opacity:1;fill-rule:nonzero;stroke:none"
         d="M 0,0 0.002,-0.008 C 0.003,-0.011 0.005,-0.013 0.007,-0.016 Z" />
    </g>
    <g
       transform="translate(444.9854,364.1055)"
       id="g36">
      <path
         id="path38"
         style="fill:none;stroke:#ffffff;stroke-width:4;stroke-linecap:butt;stroke-linejoin:miter;stroke-miterlimit:10;stroke-dasharray:none;stroke-opacity:1"
         d="M 0,0 C -0.058,0.093 -0.129,0.193 -0.207,0.298 -0.251,0.75 -0.313,1.204 -0.419,1.662 -0.757,2.907 -1.293,4.027 -2.026,5.022 -2.761,6.018 -3.638,6.818 -4.658,7.427 -5.683,8.033 -6.8,8.439 -8.011,8.643 -9.224,8.844 -10.453,8.801 -11.7,8.513 L -35.503,2.484 c -1.01,-0.22 -1.875,-0.738 -2.595,-1.548 -0.721,-0.813 -1.138,-1.759 -1.253,-2.841 -0.137,-1.429 0.238,-2.683 1.124,-3.763 0.887,-1.082 2.042,-1.692 3.47,-1.83 l 15.096,-1.452 c -0.069,-0.095 -0.131,-0.202 -0.201,-0.292 -0.246,-0.311 -0.481,-0.622 -0.701,-0.932 -0.272,-0.264 -0.545,-0.528 -0.82,-0.793 -0.273,-0.264 -0.547,-0.53 -0.821,-0.795 -0.55,-0.48 -1.113,-0.913 -1.697,-1.299 -0.581,-0.385 -1.18,-0.722 -1.792,-1.013 -1.179,-0.575 -2.348,-0.933 -3.509,-1.068 -0.289,-0.07 -0.579,-0.116 -0.87,-0.138 -0.292,-0.022 -0.584,-0.044 -0.874,-0.066 -0.2,0.033 -0.492,0.037 -0.881,0.008 -0.101,0.041 -0.248,0.055 -0.441,0.04 -0.1,-0.007 -0.173,-10e-4 -0.222,0.021 -0.052,0.021 -0.125,0.026 -0.223,0.018 -0.589,0.056 -1.134,0.161 -1.635,0.319 -0.25,0.079 -0.523,0.144 -0.82,0.194 -0.297,0.052 -0.572,0.141 -0.825,0.269 -0.553,0.203 -1.094,0.417 -1.624,0.649 -0.531,0.228 -1.054,0.517 -1.568,0.871 -0.559,0.3 -1.076,0.677 -1.548,1.13 -0.162,0.182 -0.398,0.409 -0.71,0.681 -0.111,0.137 -0.23,0.262 -0.36,0.375 -0.13,0.111 -0.25,0.238 -0.356,0.376 -0.914,1.104 -1.638,2.295 -2.174,3.575 -0.063,0.189 -0.125,0.367 -0.187,0.534 -0.059,0.167 -0.123,0.347 -0.185,0.537 -0.135,0.478 -0.21,0.837 -0.228,1.081 -0.2,0.718 -0.33,1.465 -0.388,2.242 -0.03,0.389 -0.045,0.778 -0.049,1.169 -0.006,0.39 0.002,0.781 0.022,1.174 0.029,0.247 0.051,0.455 0.063,0.628 0.011,0.172 0.033,0.355 0.068,0.555 0.061,0.492 0.126,0.912 0.198,1.259 0.186,0.796 0.407,1.594 0.666,2.395 0.255,0.799 0.624,1.585 1.105,2.353 0.816,1.479 1.959,2.858 3.428,4.14 1.424,1.18 3.09,2.111 4.993,2.791 0.952,0.316 1.935,0.548 2.952,0.696 1.014,0.15 2.037,0.19 3.067,0.12 0.975,0.023 2.036,-0.092 3.177,-0.348 0.25,-0.08 0.512,-0.147 0.783,-0.197 0.273,-0.054 0.535,-0.121 0.785,-0.199 0.154,-0.088 0.292,-0.137 0.415,-0.151 0.122,-0.018 0.261,-0.067 0.414,-0.154 0.052,-0.045 0.102,-0.065 0.153,-0.061 0.047,0.004 0.12,-0.017 0.223,-0.057 l 0.15,-0.062 0.08,-0.067 0.071,0.005 0.079,-0.069 c 0.958,-0.416 1.943,-0.501 2.95,-0.254 1.007,0.245 1.846,0.785 2.517,1.617 0.752,1.034 1.072,2.168 0.955,3.404 -0.119,1.237 -0.696,2.257 -1.731,3.058 l -0.079,0.068 -0.077,0.068 -0.308,0.195 -0.471,0.405 c -0.152,0.086 -0.317,0.184 -0.499,0.293 -0.177,0.108 -0.345,0.23 -0.502,0.366 -0.359,0.217 -0.716,0.422 -1.071,0.615 -0.357,0.193 -0.717,0.397 -1.072,0.616 -0.713,0.386 -1.46,0.733 -2.239,1.041 -0.782,0.309 -1.574,0.603 -2.375,0.886 -1.703,0.555 -3.367,0.944 -4.995,1.165 -1.731,0.26 -3.447,0.352 -5.149,0.276 -1.753,-0.085 -3.495,-0.288 -5.231,-0.612 -0.912,-0.215 -1.798,-0.453 -2.658,-0.712 -0.86,-0.259 -1.693,-0.541 -2.5,-0.846 l -2.557,-1.07 c -0.376,-0.223 -0.774,-0.437 -1.2,-0.639 -0.423,-0.204 -0.821,-0.441 -1.192,-0.712 -0.797,-0.451 -1.564,-0.949 -2.307,-1.492 -0.741,-0.543 -1.481,-1.11 -2.214,-1.703 l -2.058,-1.912 c -0.182,-0.16 -0.341,-0.331 -0.474,-0.511 -0.133,-0.182 -0.292,-0.352 -0.474,-0.512 -0.184,-0.16 -0.342,-0.332 -0.475,-0.512 -0.133,-0.182 -0.289,-0.377 -0.469,-0.585 -0.63,-0.731 -1.208,-1.483 -1.738,-2.254 -0.26,-0.411 -0.525,-0.809 -0.79,-1.196 -0.263,-0.385 -0.503,-0.781 -0.716,-1.189 -0.566,-0.921 -1.014,-1.785 -1.345,-2.59 -0.428,-0.815 -0.801,-1.699 -1.121,-2.649 -0.695,-1.81 -1.215,-3.68 -1.559,-5.613 -0.171,-0.988 -0.304,-1.975 -0.401,-2.959 -0.098,-0.984 -0.159,-1.967 -0.183,-2.943 -0.004,-1.908 0.143,-3.873 0.441,-5.902 0.539,-3.968 1.756,-7.808 3.645,-11.524 1.837,-3.674 4.279,-6.959 7.331,-9.857 0.79,-0.77 1.599,-1.467 2.428,-2.089 0.825,-0.624 1.68,-1.243 2.554,-1.863 1.75,-1.186 3.631,-2.171 5.644,-2.947 1.012,-0.462 2.014,-0.838 3.014,-1.129 1,-0.293 2.022,-0.57 3.067,-0.835 2.031,-0.385 4.174,-0.616 6.426,-0.693 0.246,-0.03 0.502,-0.034 0.772,-0.015 0.265,0.02 0.548,0.017 0.842,-0.009 l 1.601,0.119 0.731,0.055 0.218,0.017 0.072,0.006 0.073,0.004 0.073,0.006 0.364,0.027 c 0.291,0.021 0.57,0.054 0.837,0.098 0.263,0.047 0.518,0.075 0.762,0.093 1.06,0.178 2.108,0.402 3.135,0.676 1.031,0.271 2.046,0.592 3.042,0.959 2.091,0.792 4.003,1.692 5.734,2.701 1.831,1.016 3.545,2.217 5.154,3.607 1.559,1.338 2.976,2.799 4.251,4.384 1.274,1.585 2.404,3.269 3.395,5.053 1.034,1.836 1.826,3.653 2.377,5.453 0.649,1.758 1.093,3.647 1.335,5.668 0.296,1.928 0.397,3.826 0.306,5.7 -0.091,1.875 -0.327,3.725 -0.706,5.553 z" />
    </g>
    <g
       transform="translate(444.9854,364.1055)"
       id="g40">
      <path
         id="path42"
         style="fill:#da184b;fill-opacity:1;fill-rule:nonzero;stroke:none"
         d="M 0,0 C -0.058,0.093 -0.129,0.193 -0.207,0.298 -0.251,0.75 -0.313,1.204 -0.419,1.662 -0.757,2.907 -1.293,4.027 -2.026,5.022 -2.761,6.018 -3.638,6.818 -4.658,7.427 -5.683,8.033 -6.8,8.439 -8.011,8.643 -9.224,8.844 -10.453,8.801 -11.7,8.513 L -35.503,2.484 c -1.01,-0.22 -1.875,-0.738 -2.595,-1.548 -0.721,-0.813 -1.138,-1.759 -1.253,-2.841 -0.137,-1.429 0.238,-2.683 1.124,-3.763 0.887,-1.082 2.042,-1.692 3.47,-1.83 l 15.096,-1.452 c -0.069,-0.095 -0.131,-0.202 -0.201,-0.292 -0.246,-0.311 -0.481,-0.622 -0.701,-0.932 -0.272,-0.264 -0.545,-0.528 -0.82,-0.793 -0.273,-0.264 -0.547,-0.53 -0.821,-0.795 -0.55,-0.48 -1.113,-0.913 -1.697,-1.299 -0.581,-0.385 -1.18,-0.722 -1.792,-1.013 -1.179,-0.575 -2.348,-0.933 -3.509,-1.068 -0.289,-0.07 -0.579,-0.116 -0.87,-0.138 -0.292,-0.022 -0.584,-0.044 -0.874,-0.066 -0.2,0.033 -0.492,0.037 -0.881,0.008 -0.101,0.041 -0.248,0.055 -0.441,0.04 -0.1,-0.007 -0.173,-10e-4 -0.222,0.021 -0.052,0.021 -0.125,0.026 -0.223,0.018 -0.589,0.056 -1.134,0.161 -1.635,0.319 -0.25,0.079 -0.523,0.144 -0.82,0.194 -0.297,0.052 -0.572,0.141 -0.825,0.269 -0.553,0.203 -1.094,0.417 -1.624,0.649 -0.531,0.228 -1.054,0.517 -1.568,0.871 -0.559,0.3 -1.076,0.677 -1.548,1.13 -0.162,0.182 -0.398,0.409 -0.71,0.681 -0.111,0.137 -0.23,0.262 -0.36,0.375 -0.13,0.111 -0.25,0.238 -0.356,0.376 -0.914,1.104 -1.638,2.295 -2.174,3.575 -0.063,0.189 -0.125,0.367 -0.187,0.534 -0.059,0.167 -0.123,0.347 -0.185,0.537 -0.135,0.478 -0.21,0.837 -0.228,1.081 -0.2,0.718 -0.33,1.465 -0.388,2.242 -0.03,0.389 -0.045,0.778 -0.049,1.169 -0.006,0.39 0.002,0.781 0.022,1.174 0.029,0.247 0.051,0.455 0.063,0.628 0.011,0.172 0.033,0.355 0.068,0.555 0.061,0.492 0.126,0.912 0.198,1.259 0.186,0.796 0.407,1.594 0.666,2.395 0.255,0.799 0.624,1.585 1.105,2.353 0.816,1.479 1.959,2.858 3.428,4.14 1.424,1.18 3.09,2.111 4.993,2.791 0.952,0.316 1.935,0.548 2.952,0.696 1.014,0.15 2.037,0.19 3.067,0.12 0.975,0.023 2.036,-0.092 3.177,-0.348 0.25,-0.08 0.512,-0.147 0.783,-0.197 0.273,-0.054 0.535,-0.121 0.785,-0.199 0.154,-0.088 0.292,-0.137 0.415,-0.151 0.122,-0.018 0.261,-0.067 0.414,-0.154 0.052,-0.045 0.102,-0.065 0.153,-0.061 0.047,0.004 0.12,-0.017 0.223,-0.057 l 0.15,-0.062 0.08,-0.067 0.071,0.005 0.079,-0.069 c 0.958,-0.416 1.943,-0.501 2.95,-0.254 1.007,0.245 1.846,0.785 2.517,1.617 0.752,1.034 1.072,2.168 0.955,3.404 -0.119,1.237 -0.696,2.257 -1.731,3.058 l -0.079,0.068 -0.077,0.068 -0.308,0.195 -0.471,0.405 c -0.152,0.086 -0.317,0.184 -0.499,0.293 -0.177,0.108 -0.345,0.23 -0.502,0.366 -0.359,0.217 -0.716,0.422 -1.071,0.615 -0.357,0.193 -0.717,0.397 -1.072,0.616 -0.713,0.386 -1.46,0.733 -2.239,1.041 -0.782,0.309 -1.574,0.603 -2.375,0.886 -1.703,0.555 -3.367,0.944 -4.995,1.165 -1.731,0.26 -3.447,0.352 -5.149,0.276 -1.753,-0.085 -3.495,-0.288 -5.231,-0.612 -0.912,-0.215 -1.798,-0.453 -2.658,-0.712 -0.86,-0.259 -1.693,-0.541 -2.5,-0.846 l -2.557,-1.07 c -0.376,-0.223 -0.774,-0.437 -1.2,-0.639 -0.423,-0.204 -0.821,-0.441 -1.192,-0.712 -0.797,-0.451 -1.564,-0.949 -2.307,-1.492 -0.741,-0.543 -1.481,-1.11 -2.214,-1.703 l -2.058,-1.912 c -0.182,-0.16 -0.341,-0.331 -0.474,-0.511 -0.133,-0.182 -0.292,-0.352 -0.474,-0.512 -0.184,-0.16 -0.342,-0.332 -0.475,-0.512 -0.133,-0.182 -0.289,-0.377 -0.469,-0.585 -0.63,-0.731 -1.208,-1.483 -1.738,-2.254 -0.26,-0.411 -0.525,-0.809 -0.79,-1.196 -0.263,-0.385 -0.503,-0.781 -0.716,-1.189 -0.566,-0.921 -1.014,-1.785 -1.345,-2.59 -0.428,-0.815 -0.801,-1.699 -1.121,-2.649 -0.695,-1.81 -1.215,-3.68 -1.559,-5.613 -0.171,-0.988 -0.304,-1.975 -0.401,-2.959 -0.098,-0.984 -0.159,-1.967 -0.183,-2.943 -0.004,-1.908 0.143,-3.873 0.441,-5.902 0.539,-3.968 1.756,-7.808 3.645,-11.524 1.837,-3.674 4.279,-6.959 7.331,-9.857 0.79,-0.77 1.599,-1.467 2.428,-2.089 0.825,-0.624 1.68,-1.243 2.554,-1.863 1.75,-1.186 3.631,-2.171 5.644,-2.947 1.012,-0.462 2.014,-0.838 3.014,-1.129 1,-0.293 2.022,-0.57 3.067,-0.835 2.031,-0.385 4.174,-0.616 6.426,-0.693 0.246,-0.03 0.502,-0.034 0.772,-0.015 0.265,0.02 0.548,0.017 0.842,-0.009 l 1.601,0.119 0.731,0.055 0.218,0.017 0.072,0.006 0.073,0.004 0.073,0.006 0.364,0.027 c 0.291,0.021 0.57,0.054 0.837,0.098 0.263,0.047 0.518,0.075 0.762,0.093 1.06,0.178 2.108,0.402 3.135,0.676 1.031,0.271 2.046,0.592 3.042,0.959 2.091,0.792 4.003,1.692 5.734,2.701 1.831,1.016 3.545,2.217 5.154,3.607 1.559,1.338 2.976,2.799 4.251,4.384 1.274,1.585 2.404,3.269 3.395,5.053 1.034,1.836 1.826,3.653 2.377,5.453 0.649,1.758 1.093,3.647 1.335,5.668 0.296,1.928 0.397,3.826 0.306,5.7 -0.091,1.875 -0.327,3.725 -0.706,5.553 z" />
    </g>
    <g
       transform="translate(540.0156,375.7939)"
       id="g44">
      <path
         id="path46"
         style="fill:none;stroke:#ffffff;stroke-width:4;stroke-linecap:butt;stroke-linejoin:miter;stroke-miterlimit:10;stroke-dasharray:none;stroke-opacity:1"
         d="m 0,0 c -0.524,-1.481 -1.28,-2.796 -2.271,-3.943 -0.987,-1.15 -2.175,-2.093 -3.558,-2.831 -1.389,-0.739 -2.908,-1.169 -4.56,-1.293 -1.651,-0.123 -3.216,0.077 -4.696,0.601 -1.48,0.525 -2.796,1.281 -3.943,2.271 -1.149,0.987 -2.093,2.174 -2.831,3.561 -0.739,1.386 -1.168,2.905 -1.292,4.557 -0.122,1.65 0.077,3.217 0.6,4.697 0.525,1.48 1.282,2.794 2.271,3.944 0.987,1.147 2.175,2.09 3.561,2.83 1.386,0.737 2.905,1.169 4.556,1.293 1.651,0.123 3.218,-0.078 4.7,-0.602 1.477,-0.525 2.793,-1.281 3.941,-2.269 1.149,-0.99 2.092,-2.177 2.831,-3.563 C 0.046,7.868 0.477,6.347 0.6,4.697 0.723,3.045 0.523,1.479 0,0 Z m 16.381,4.337 c -1.915,4.058 -4.374,7.538 -7.375,10.439 -3,2.901 -6.44,5.113 -10.314,6.63 -3.874,1.517 -7.922,2.118 -12.15,1.802 -4.225,-0.315 -8.129,-1.511 -11.71,-3.585 -3.582,-2.074 -6.642,-4.771 -9.178,-8.086 -2.536,-3.315 -4.449,-7.122 -5.741,-11.419 -1.29,-4.297 -1.76,-8.826 -1.403,-13.586 0.167,-2.227 0.511,-4.373 1.019,-6.441 -1.011,0.701 -2.167,1.008 -3.462,0.911 l -23.911,-1.838 -5.818,38.887 c -0.2,1.352 -0.799,2.529 -1.804,3.529 -1.001,0.999 -2.22,1.592 -3.648,1.778 -0.886,0.08 -1.723,0.006 -2.511,-0.224 -0.791,-0.23 -1.495,-0.587 -2.118,-1.074 -0.623,-0.486 -1.153,-1.088 -1.586,-1.804 -0.436,-0.717 -0.693,-1.516 -0.775,-2.402 l -6.152,-51.014 c -0.16,-1.135 -0.144,-2.307 0.041,-3.514 0.284,-1.834 0.884,-3.488 1.802,-4.957 0.915,-1.469 2.056,-2.715 3.429,-3.737 1.37,-1.02 2.89,-1.749 4.559,-2.186 1.055,-0.277 2.149,-0.392 3.27,-0.38 1.055,-0.129 2.122,-0.144 3.208,-0.016 1.717,0.202 3.374,0.755 4.968,1.654 l 30.153,17.125 c 0.888,0.506 1.58,1.218 2.073,2.134 0.171,0.317 0.297,0.647 0.398,0.983 0.089,-0.2 0.174,-0.404 0.268,-0.604 1.916,-4.033 4.371,-7.501 7.372,-10.403 3.001,-2.9 6.427,-5.113 10.277,-6.631 3.851,-1.52 7.889,-2.122 12.114,-1.807 4.227,0.316 8.142,1.512 11.748,3.59 3.605,2.075 6.679,4.773 9.213,8.088 2.537,3.315 4.452,7.109 5.744,11.383 1.294,4.273 1.762,8.789 1.406,13.548 -0.356,4.76 -1.49,9.169 -3.406,13.227 z" />
    </g>
    <g
       transform="translate(540.0156,375.7939)"
       id="g48">
      <path
         id="path50"
         style="fill:#da184b;fill-opacity:1;fill-rule:nonzero;stroke:none"
         d="m 0,0 c -0.524,-1.481 -1.28,-2.796 -2.271,-3.943 -0.987,-1.15 -2.175,-2.093 -3.558,-2.831 -1.389,-0.739 -2.908,-1.169 -4.56,-1.293 -1.651,-0.123 -3.216,0.077 -4.696,0.601 -1.48,0.525 -2.796,1.281 -3.943,2.271 -1.149,0.987 -2.093,2.174 -2.831,3.561 -0.739,1.386 -1.168,2.905 -1.292,4.557 -0.122,1.65 0.077,3.217 0.6,4.697 0.525,1.48 1.282,2.794 2.271,3.944 0.987,1.147 2.175,2.09 3.561,2.83 1.386,0.737 2.905,1.169 4.556,1.293 1.651,0.123 3.218,-0.078 4.7,-0.602 1.477,-0.525 2.793,-1.281 3.941,-2.269 1.149,-0.99 2.092,-2.177 2.831,-3.563 C 0.046,7.868 0.477,6.347 0.6,4.697 0.723,3.045 0.523,1.479 0,0 m 16.381,4.337 c -1.915,4.058 -4.374,7.538 -7.375,10.439 -3,2.901 -6.44,5.113 -10.314,6.63 -3.874,1.517 -7.922,2.118 -12.15,1.802 -4.225,-0.315 -8.129,-1.511 -11.71,-3.585 -3.582,-2.074 -6.642,-4.771 -9.178,-8.086 -2.536,-3.315 -4.449,-7.122 -5.741,-11.419 -1.29,-4.297 -1.76,-8.826 -1.403,-13.586 0.167,-2.227 0.511,-4.373 1.019,-6.441 -1.011,0.701 -2.167,1.008 -3.462,0.911 l -23.911,-1.838 -5.818,38.887 c -0.2,1.352 -0.799,2.529 -1.804,3.529 -1.001,0.999 -2.22,1.592 -3.648,1.778 -0.886,0.08 -1.723,0.006 -2.511,-0.224 -0.791,-0.23 -1.495,-0.587 -2.118,-1.074 -0.623,-0.486 -1.153,-1.088 -1.586,-1.804 -0.436,-0.717 -0.693,-1.516 -0.775,-2.402 l -6.152,-51.014 c -0.16,-1.135 -0.144,-2.307 0.041,-3.514 0.284,-1.834 0.884,-3.488 1.802,-4.957 0.915,-1.469 2.056,-2.715 3.429,-3.737 1.37,-1.02 2.89,-1.749 4.559,-2.186 1.055,-0.277 2.149,-0.392 3.27,-0.38 1.055,-0.129 2.122,-0.144 3.208,-0.016 1.717,0.202 3.374,0.755 4.968,1.654 l 30.153,17.125 c 0.888,0.506 1.58,1.218 2.073,2.134 0.171,0.317 0.297,0.647 0.398,0.983 0.089,-0.2 0.174,-0.404 0.268,-0.604 1.916,-4.033 4.371,-7.501 7.372,-10.403 3.001,-2.9 6.427,-5.113 10.277,-6.631 3.851,-1.52 7.889,-2.122 12.114,-1.807 4.227,0.316 8.142,1.512 11.748,3.59 3.605,2.075 6.679,4.773 9.213,8.088 2.537,3.315 4.452,7.109 5.744,11.383 1.294,4.273 1.762,8.789 1.406,13.548 -0.356,4.76 -1.49,9.169 -3.406,13.227" />
    </g>
    <g
       transform="translate(538.5732,333.6992)"
       id="g52">
      <path
         id="path54"
         style="fill:none;stroke:#ffffff;stroke-width:1.5;stroke-linecap:butt;stroke-linejoin:miter;stroke-miterlimit:10;stroke-dasharray:none;stroke-opacity:1"
         d="m 0,0 c 0,0 19.361,-25.768 17.423,-101.223 -1.936,-75.453 30.932,-52.631 30.932,-52.631" />
    </g>
    <g
       transform="translate(541,340.5889)"
       id="g56">
      <path
         id="path58"
         style="fill:#da184b;fill-opacity:1;fill-rule:nonzero;stroke:none"
         d="m 0,0 -4.124,-1.692 -0.747,-0.309 -4.121,-1.691 -0.729,-14.537 c 0.776,-1.884 2.926,-2.787 4.803,-2.016 1.878,0.771 2.772,2.921 1.998,4.806 0.774,-1.885 2.921,-2.786 4.799,-2.013 1.878,0.769 2.773,2.921 2,4.806 0.773,-1.885 2.923,-2.788 4.8,-2.015 1.88,0.771 2.772,2.921 1.998,4.807 l 0.052,0.021 z" />
    </g>
    <g
       transform="translate(344.6133,466.5757)"
       id="g60">
      <path
         id="path62"
         style="fill:none;stroke:#ffffff;stroke-width:1.5;stroke-linecap:butt;stroke-linejoin:miter;stroke-miterlimit:10;stroke-dasharray:none;stroke-opacity:1"
         d="m 0,0 c 0,0 23.121,-36.089 13.076,-135.956 -10.043,-99.866 35.804,-72.86 35.804,-72.86" />
    </g>
    <g
       transform="translate(357.5605,462.6475)"
       id="g64">
      <path
         id="path66"
         style="fill:none;stroke:#ffffff;stroke-width:4;stroke-linecap:butt;stroke-linejoin:miter;stroke-miterlimit:10;stroke-dasharray:none;stroke-opacity:1"
         d="m 0,0 -6.594,7.015 c 12.48,7.747 19.932,23.248 17.726,39.898 -2.923,22.045 -21.668,37.747 -41.868,35.068 -20.198,-2.677 -34.205,-22.72 -31.283,-44.765 2.922,-22.046 21.667,-37.747 41.866,-35.07 0.065,0.009 0.128,0.022 0.192,0.031 l -1.133,-9.052 c 0.634,-1.944 2.718,-3.007 4.655,-2.376 1.938,0.632 2.993,2.716 2.359,4.659 0.634,-1.943 2.715,-3.005 4.652,-2.374 1.937,0.631 2.995,2.717 2.361,4.663 0.634,-1.946 2.717,-3.01 4.653,-2.378 1.938,0.632 2.994,2.717 2.359,4.663 z" />
    </g>
    <g
       transform="translate(357.5605,462.6475)"
       id="g68">
      <path
         id="path70"
         style="fill:#fddd10;fill-opacity:1;fill-rule:nonzero;stroke:none"
         d="m 0,0 -6.594,7.015 c 12.48,7.747 19.932,23.248 17.726,39.898 -2.923,22.045 -21.668,37.747 -41.868,35.068 -20.198,-2.677 -34.205,-22.72 -31.283,-44.765 2.922,-22.046 21.667,-37.747 41.866,-35.07 0.065,0.009 0.128,0.022 0.192,0.031 l -1.133,-9.052 c 0.634,-1.944 2.718,-3.007 4.655,-2.376 1.938,0.632 2.993,2.716 2.359,4.659 0.634,-1.943 2.715,-3.005 4.652,-2.374 1.937,0.631 2.995,2.717 2.361,4.663 0.634,-1.946 2.717,-3.01 4.653,-2.378 1.938,0.632 2.994,2.717 2.359,4.663 z" />
    </g>
    <g
       transform="translate(341.3149,531.8691)"
       id="g72">
      <path
         id="path74"
         style="fill:#ffffff;fill-opacity:1;fill-rule:nonzero;stroke:none"
         d="M 0,0 3.461,-7.013 11.2,-8.138 5.6,-13.597 6.921,-21.304 0,-17.665 l -6.922,-3.639 1.321,7.707 -5.6,5.459 7.74,1.125 z" />
    </g>
    <g
       transform="translate(266.6982,378.293)"
       id="g76">
      <path
         id="path78"
         style="fill:none;stroke:#ffffff;stroke-width:1.5;stroke-linecap:butt;stroke-linejoin:miter;stroke-miterlimit:10;stroke-dasharray:none;stroke-opacity:1"
         d="m 0,0 c 0,0 0.266,-46.822 42.479,-95.933 42.213,-49.111 73.385,-15.108 73.385,-15.108" />
    </g>
    <g
       transform="translate(309.106,432.9102)"
       id="g80">
      <path
         id="path82"
         style="fill:none;stroke:#ffffff;stroke-width:4;stroke-linecap:butt;stroke-linejoin:miter;stroke-miterlimit:10;stroke-dasharray:none;stroke-opacity:1"
         d="m 0,0 c 0,25.293 -17.615,45.797 -39.345,45.797 -21.73,0 -39.346,-20.504 -39.346,-45.797 0,-21.727 13.003,-39.904 30.439,-44.605 l -5.418,-8.346 c -0.296,-2.16 1.209,-4.151 3.361,-4.445 2.153,-0.294 4.134,1.214 4.431,3.375 -0.297,-2.161 1.207,-4.147 3.359,-4.442 2.152,-0.295 4.137,1.216 4.433,3.377 -0.296,-2.161 1.21,-4.151 3.359,-4.446 2.155,-0.295 4.137,1.216 4.433,3.378 l 0.06,-0.009 -3.395,10.852 C -14.609,-42.087 0,-23.032 0,0 Z" />
    </g>
    <g
       transform="translate(309.106,432.9102)"
       id="g84">
      <path
         id="path86"
         style="fill:#f14624;fill-opacity:1;fill-rule:nonzero;stroke:none"
         d="m 0,0 c 0,25.293 -17.615,45.797 -39.345,45.797 -21.73,0 -39.346,-20.504 -39.346,-45.797 0,-21.727 13.003,-39.904 30.439,-44.605 l -5.418,-8.346 c -0.296,-2.16 1.209,-4.151 3.361,-4.445 2.153,-0.294 4.134,1.214 4.431,3.375 -0.297,-2.161 1.207,-4.147 3.359,-4.442 2.152,-0.295 4.137,1.216 4.433,3.377 -0.296,-2.161 1.21,-4.151 3.359,-4.446 2.155,-0.295 4.137,1.216 4.433,3.378 l 0.06,-0.009 -3.395,10.852 C -14.609,-42.087 0,-23.032 0,0" />
    </g>
    <g
       transform="translate(280.2031,466.0747)"
       id="g88">
      <path
         id="path90"
         style="fill:#ffffff;fill-opacity:1;fill-rule:nonzero;stroke:none"
         d="m 0,0 3.461,-7.013 7.739,-1.125 -5.6,-5.459 1.321,-7.708 -6.921,3.64 -6.922,-3.64 1.321,7.708 -5.6,5.459 7.739,1.125 z" />
    </g>
    <g
       transform="translate(318.9492,340.3994)"
       id="g92">
      <path
         id="path94"
         style="fill:#ffffff;fill-opacity:1;fill-rule:nonzero;stroke:none"
         d="m 0,0 c -3.462,-13.928 -8.715,-28.428 -17.062,-40.175 -5.721,-8.051 -14.325,-13.562 -23.559,-7.276 -8.989,6.116 -1.066,15.174 5.991,18.107 30.006,12.467 54.168,-28.861 64.58,-50.105 4.606,-9.395 8.126,-19.499 14.213,-28.087 5.578,-7.871 14.021,-11.731 23.264,-13.502 1.248,-0.24 1.534,1.712 0.289,1.95 -15.248,2.916 -22.759,12.034 -29.086,25.506 -7.555,16.098 -14.969,31.494 -25.944,45.652 -8.73,11.266 -20.415,20.821 -35.045,22.218 -8.04,0.768 -17.217,-1.89 -22.164,-8.584 -4.083,-5.517 -1.667,-11.743 3.567,-15.306 6.793,-4.625 14.738,-2.958 20.443,2.499 C -8.24,-35.362 -2.057,-16.419 1.948,-0.286 2.257,0.946 0.304,1.226 0,0" />
    </g>
    <g
       transform="translate(376.4258,403.0356)"
       id="g96">
      <path
         id="path98"
         style="fill:none;stroke:#ffffff;stroke-width:4;stroke-linecap:butt;stroke-linejoin:miter;stroke-miterlimit:10;stroke-dasharray:none;stroke-opacity:1"
         d="m 0,0 c -2.866,29.374 -26.87,51.071 -53.616,48.462 -26.744,-2.61 -46.102,-28.539 -43.237,-57.914 2.019,-20.679 14.519,-37.54 31.071,-44.806 l -7.538,-11.52 c -0.378,-2.678 1.478,-5.15 4.147,-5.526 2.669,-0.376 5.133,1.485 5.511,4.166 -0.378,-2.681 1.477,-5.151 4.144,-5.527 2.669,-0.377 5.138,1.489 5.514,4.166 -0.376,-2.677 1.479,-5.153 4.146,-5.526 2.67,-0.378 5.136,1.488 5.512,4.167 l 0.075,-0.012 -3.628,11.753 c 1.543,-0.009 3.097,0.051 4.664,0.204 C -16.49,-55.302 2.867,-29.374 0,0 Z" />
    </g>
    <g
       transform="translate(376.4258,403.0356)"
       id="g100">
      <path
         id="path102"
         style="fill:#ec008c;fill-opacity:1;fill-rule:nonzero;stroke:none"
         d="m 0,0 c -2.866,29.374 -26.87,51.071 -53.616,48.462 -26.744,-2.61 -46.102,-28.539 -43.237,-57.914 2.019,-20.679 14.519,-37.54 31.071,-44.806 l -7.538,-11.52 c -0.378,-2.678 1.478,-5.15 4.147,-5.526 2.669,-0.376 5.133,1.485 5.511,4.166 -0.378,-2.681 1.477,-5.151 4.144,-5.527 2.669,-0.377 5.138,1.489 5.514,4.166 -0.376,-2.677 1.479,-5.153 4.146,-5.526 2.67,-0.378 5.136,1.488 5.512,4.167 l 0.075,-0.012 -3.628,11.753 c 1.543,-0.009 3.097,0.051 4.664,0.204 C -16.49,-55.302 2.867,-29.374 0,0" />
    </g>
    <g
       transform="translate(344.6138,437.2744)"
       id="g104">
      <path
         id="path106"
         style="fill:#ffffff;fill-opacity:1;fill-rule:nonzero;stroke:none"
         d="m 0,0 4.092,-8.292 9.15,-1.33 -6.62,-6.454 1.562,-9.113 -8.184,4.302 -8.185,-4.302 1.563,9.113 -6.621,6.454 9.151,1.33 z" />
    </g>
    <g
       transform="translate(246.5698,335.9463)"
       id="g108">
      <path
         id="path110"
         style="fill:#ffffff;fill-opacity:1;fill-rule:nonzero;stroke:none"
         d="m 0,0 c 0.583,-1.146 1.039,-2.358 1.353,-3.616 1.406,-5.626 2.378,-11.324 2.888,-16.938 0.012,-0.134 0.024,-0.278 0.033,-0.422 0.601,-9.011 -0.517,-17.55 -3.336,-25.579 8.814,6.641 17.497,14.442 25.938,23.317 C 40.286,-9.281 47.792,3.924 48.037,13.974 48.246,21.289 45.89,24.351 42.021,26.93 37.41,29.936 31.029,31.579 22.102,32.02 16.41,24.304 8.995,13.563 0,0 m -111.795,-47 c 1.091,-0.626 4.011,-1.749 10.776,-1.749 0.799,0 1.619,0.017 2.46,0.049 0.99,0.054 1.982,0.13 2.972,0.225 8.344,13.903 19.033,30.973 30.197,48.59 -4.305,-2.908 -8.615,-6.002 -12.921,-9.277 C -101.506,-26.7 -110.694,-39.827 -111.795,-47 m 40.95,-86.271 c -41.34,0 -71.082,12.293 -88.4,36.538 -6.608,9.15 -9.831,18.363 -9.831,28.131 0,5.64 2.716,10.748 7.102,13.896 -0.589,4.465 -0.734,9.181 -0.426,14.093 0.926,14.361 7.483,29.126 20.044,45.154 30.722,39.445 72.814,64.833 125.092,75.439 0.057,0.013 0.152,0.031 0.258,0.05 4.66,0.889 9.548,1.793 14.217,2.408 13.205,11.746 25.155,17.462 36.477,17.462 4.859,0 18.472,-2.418 23.046,-13.459 1.434,-3.464 1.717,-7.195 0.943,-10.709 8.805,-3.711 16.308,-8.597 22.766,-14.802 14.207,-13.34 21.41,-31.042 21.41,-52.617 0,-8.502 -1.217,-16.96 -3.632,-25.31 4.267,1.351 8.513,2.031 12.721,2.031 2.826,0 5.635,-0.313 8.348,-0.93 l 0.3,-0.072 c 11.036,-2.759 19.416,-10.004 23.629,-19.516 13.147,13.513 27.101,20.364 41.497,20.364 12.184,0 22.96,-5.566 29.568,-15.269 1.184,-1.741 2.199,-3.578 3.037,-5.485 0.326,0.318 0.655,0.636 0.986,0.954 13.861,13.111 28.494,19.739 43.532,19.739 3.269,0 6.562,-0.327 9.786,-0.971 13.249,-2.741 22.394,-10.56 26.444,-22.156 0.729,2.49 1.039,3.98 1.169,4.824 l 1.041,6.929 c 0.174,1.164 0.469,2.312 0.88,3.419 0.096,0.471 0.655,3.318 0.655,3.318 0.392,1.955 1.101,3.787 2.111,5.473 4.688,7.813 11.128,10.545 15.748,11.456 1.552,0.338 3.134,0.509 4.703,0.509 6.968,0 13.294,-3.185 17.813,-8.971 3.012,-3.859 5.001,-8.68 5.747,-13.753 0.276,-0.121 0.563,-0.246 0.86,-0.375 0.653,-0.286 2.023,-0.885 2.784,-1.204 l 7.54,-1.884 c 1.648,-0.413 3.215,-1.063 4.662,-1.932 5.633,-3.379 9.66,-9.041 11.054,-15.538 1.334,-5.937 -0.353,-11.241 -3.828,-17.913 0.325,0.014 0.653,0.022 0.98,0.022 2.554,0 5.037,-0.438 7.58,-1.341 6.385,-1.981 11.232,-6.69 13.319,-12.952 0.195,-0.592 0.351,-1.159 0.473,-1.716 2.846,-12.8 -6.629,-23.25 -17.292,-32.633 -0.406,-0.357 -0.823,-0.691 -1.241,-0.994 l -7.691,-5.593 c -0.268,-0.195 -0.519,-0.366 -0.774,-0.531 -14.381,-9.279 -24.162,-13.233 -32.72,-13.233 -15.244,0 -26.674,8.543 -31.127,22.745 -3.409,-3.007 -7.872,-6.075 -13.515,-9.301 -0.125,-0.072 -0.293,-0.164 -0.461,-0.253 -7.663,-4.058 -15.734,-6.025 -24.7,-6.025 -1.554,0 -3.149,0.062 -4.743,0.184 -1.118,0.02 -2.231,0.085 -3.335,0.192 -5.039,-2.558 -9.904,-4.407 -14.805,-5.632 -0.139,-0.036 -0.321,-0.078 -0.502,-0.118 -4.398,-0.956 -8.681,-1.439 -12.744,-1.439 -7.324,0 -14.133,1.548 -20.24,4.602 -2.7,1.35 -5.165,2.951 -7.373,4.789 -11.923,-5.309 -25.02,-8.341 -39.02,-9.023 -1.142,-0.05 -2.187,-0.073 -3.238,-0.073 -14.683,0 -24.037,4.82 -29.896,10.176 -13.531,-6.166 -26.898,-9.48 -40.69,-10.107 -1.106,-0.047 -2.142,-0.069 -3.19,-0.069 -23.362,0 -38.997,12.489 -41.824,33.41 -0.342,2.556 -0.496,5.115 -0.462,7.682 -9.325,-7.262 -19.316,-13.845 -29.879,-19.677 -27.077,-14.875 -54.91,-22.413 -82.743,-22.413" />
    </g>
    <g
       transform="translate(129.8218,287.3184)"
       id="g112">
      <path
         id="path114"
         style="fill:#ffffff;fill-opacity:1;fill-rule:nonzero;stroke:none"
         d="m 0,0 c 1.913,-4.089 9.555,-4.962 15.729,-4.962 0.879,0 1.781,0.019 2.708,0.055 1.939,0.105 3.914,0.29 5.872,0.55 0.253,0.653 0.561,1.284 0.924,1.889 C 36.347,16.055 51.674,40.275 66.736,63.91 56.391,58.143 45.927,51.244 35.507,43.319 12.722,26.092 -0.167,10.351 0,0 m 110.969,48.667 c 1.157,-1.404 1.992,-3.054 2.436,-4.83 1.345,-5.385 2.275,-10.835 2.763,-16.201 l 0.024,-0.299 c 0.985,-14.771 -3.05,-28.197 -12.022,-40.105 0.514,0.301 1.029,0.604 1.545,0.91 14.157,8.495 28.096,19.907 41.416,33.911 14.44,15.029 22.214,29.006 22.493,40.43 0.229,8.022 -2.214,13.133 -8.17,17.103 -5.77,3.762 -13.556,5.667 -24.475,5.978 -0.164,0 -0.333,0 -0.505,-10e-4 -6.256,-8.335 -14.806,-20.702 -25.436,-36.791 z m 260.292,-60.96 c 0.91,-0.977 1.658,-2.097 2.211,-3.311 0.445,1.712 0.62,3.275 0.532,4.72 -0.717,-0.245 -1.625,-0.676 -2.743,-1.409 m -86.778,-13.701 c -2.176,-3.934 -3.253,-7.383 -3.253,-10.411 0,-2.894 0,-3.496 5.268,-3.825 0.466,-0.033 0.879,-0.046 1.294,-0.046 5.739,0 13.479,2.56 23.024,7.615 0.068,0.277 0.139,0.555 0.211,0.832 -4.259,-2.191 -8.724,-3.65 -12.935,-4.176 -0.5,-0.063 -1.015,-0.096 -1.528,-0.096 -5.003,0 -9.462,2.995 -11.36,7.627 -0.331,0.811 -0.571,1.642 -0.721,2.48 M 45.903,-79.802 c -39.687,0 -68.104,11.612 -84.46,34.51 -6.006,8.317 -8.93,16.603 -8.93,25.318 0,5.022 3.002,9.455 7.572,11.344 -0.963,5.064 -1.268,10.547 -0.906,16.343 0.861,13.346 7.083,27.235 19.023,42.47 30.001,38.519 71.132,63.311 122.245,73.681 0.055,0.012 0.141,0.029 0.226,0.043 5.03,0.96 10.406,1.953 15.395,2.545 12.728,11.595 23.977,17.236 34.368,17.236 3.693,0 15.033,-1.924 18.573,-10.472 1.59,-3.836 1.24,-8.125 -0.804,-11.627 10.183,-3.653 18.61,-8.765 25.664,-15.552 13.189,-12.366 19.891,-28.893 19.891,-49.097 0,-11.558 -2.383,-23.05 -7.098,-34.295 7.123,4.102 14.17,6.176 21.028,6.176 2.465,0 4.912,-0.272 7.273,-0.81 l 0.236,-0.055 C 247.661,24.84 256.02,15.499 257.8,3.561 c 1.366,1.601 2.797,3.202 4.288,4.793 12.609,13.478 25.858,20.313 39.376,20.313 10.557,0 19.875,-4.794 25.566,-13.152 2.473,-3.634 4.083,-7.756 4.752,-12.058 2.066,2.249 4.28,4.508 6.625,6.758 12.907,12.209 26.421,18.391 40.18,18.391 2.952,0 5.924,-0.294 8.838,-0.877 15.836,-3.276 24.907,-15.054 24.907,-32.32 0,-1.739 -0.078,-3.488 -0.233,-5.244 1.296,2.244 2.389,4.564 3.405,7.206 3.706,9.885 4.911,14.723 5.267,17.036 l 1.043,6.947 c 0.142,0.948 0.394,1.877 0.752,2.765 0.116,0.552 0.266,1.312 0.393,1.967 l 0.353,1.789 c 0.279,1.394 0.787,2.709 1.513,3.919 3.805,6.343 8.966,8.511 12.625,9.214 1.155,0.259 2.421,0.399 3.675,0.399 5.445,0 10.416,-2.524 13.997,-7.109 2.961,-3.795 4.773,-8.938 5.021,-14.09 0.962,-0.405 2.089,-0.895 3.461,-1.495 0.888,-0.388 2.48,-1.084 3.21,-1.379 l 7.88,-1.97 c 1.181,-0.296 2.306,-0.761 3.343,-1.385 4.502,-2.7 7.717,-7.237 8.823,-12.445 1.325,-5.808 -1.23,-11.115 -6.963,-21.018 l -3.289,-5.657 c 0.589,0.491 1.106,0.922 1.534,1.278 0.538,0.448 1.059,0.817 1.594,1.137 2.856,1.714 5.886,2.585 9,2.585 2.023,0 4.004,-0.358 6.052,-1.093 4.994,-1.519 8.634,-5.028 10.254,-9.89 0.136,-0.41 0.249,-0.815 0.338,-1.225 2.174,-9.779 -4.728,-18.25 -15.762,-27.959 -0.288,-0.253 -0.582,-0.49 -0.89,-0.713 l -7.69,-5.593 c -0.19,-0.138 -0.374,-0.264 -0.561,-0.385 -13.352,-8.613 -22.629,-12.453 -30.087,-12.453 -15.255,0 -25.684,9.584 -27.897,25.637 -0.086,0.639 -0.146,1.288 -0.18,1.947 -1.305,-1.309 -2.498,-2.459 -3.607,-3.475 -3.286,-3.576 -8.312,-7.274 -15.361,-11.303 -0.1,-0.058 -0.219,-0.123 -0.338,-0.186 -6.932,-3.672 -14.263,-5.454 -22.42,-5.454 -1.478,0 -2.997,0.06 -4.515,0.181 -1.508,0.021 -3.008,0.133 -4.474,0.334 -5.176,-2.739 -10.114,-4.677 -15.068,-5.916 -0.11,-0.028 -0.238,-0.057 -0.364,-0.085 -4.053,-0.881 -7.99,-1.328 -11.708,-1.328 -6.565,0 -12.647,1.377 -18.074,4.092 -3.317,1.657 -6.218,3.741 -8.651,6.211 -12.124,-5.89 -25.617,-9.232 -40.144,-9.94 -1.076,-0.047 -2.05,-0.068 -3.002,-0.068 -12.692,0 -22.387,3.757 -28.862,11.175 -14.01,-6.827 -27.755,-10.466 -41.944,-11.11 -1.037,-0.044 -2.014,-0.065 -2.97,-0.065 -20.713,0 -34.555,10.922 -37.027,29.218 -0.815,6.108 -0.449,12.253 1.121,18.571 C 153.212,-41.233 140.272,-50.281 126.306,-57.993 99.961,-72.466 72.912,-79.802 45.903,-79.802" />
    </g>
    <g
       transform="translate(414.0527,250.3818)"
       id="g116">
      <path
         id="path118"
         style="fill:#da1259;fill-opacity:1;fill-rule:nonzero;stroke:none"
         d="m 0,0 c -0.001,0.183 -0.001,0.366 -0.001,0.531 0,0.938 0.137,1.947 0.41,3.026 C 1.669,1.979 3.22,0.679 4.968,-0.281 4.455,-0.322 3.987,-0.34 3.562,-0.34 3.2,-0.34 2.861,-0.328 2.495,-0.303 1.314,-0.229 0.52,-0.109 0,0 m -281.203,37.75 c 0.355,4.697 4.531,17.613 34.282,40.107 6.717,5.11 13.447,9.785 20.147,13.997 -12.815,-20.167 -25.328,-40.061 -34.796,-55.841 -0.129,-0.216 -0.254,-0.436 -0.372,-0.657 -1.336,-0.147 -2.678,-0.257 -4.016,-0.332 -0.885,-0.033 -1.74,-0.049 -2.543,-0.049 -7.645,0 -11.481,1.387 -12.702,2.775 m 111.569,47.901 c 9.598,14.493 17.441,25.847 23.356,33.815 9.767,-0.381 16.735,-2.123 21.862,-5.457 5.101,-3.409 7.011,-7.475 6.811,-14.491 -0.258,-10.536 -7.945,-24.177 -21.647,-38.439 -10.207,-10.73 -20.758,-19.903 -31.485,-27.382 4.517,9.493 6.424,19.776 5.691,30.781 -0.008,0.123 -0.018,0.248 -0.03,0.373 -0.501,5.512 -1.457,11.117 -2.84,16.65 -0.366,1.467 -0.947,2.865 -1.718,4.15 m 35.839,97.973 c -10.971,0 -22.656,-5.687 -35.676,-17.374 -4.793,-0.609 -9.863,-1.546 -14.69,-2.466 -0.084,-0.015 -0.169,-0.033 -0.254,-0.051 -51.817,-10.521 -93.535,-35.68 -123.986,-74.778 -12.314,-15.711 -18.743,-30.143 -19.644,-44.106 -0.327,-5.22 -0.133,-10.203 0.573,-14.879 -4.444,-2.731 -7.246,-7.594 -7.246,-13.007 0,-9.368 3.11,-18.229 9.507,-27.087 16.934,-23.708 46.171,-35.741 86.883,-35.741 27.519,0 55.055,7.461 81.842,22.176 11.698,6.46 22.682,13.84 32.831,22.051 -0.35,-3.828 -0.271,-7.62 0.234,-11.404 2.693,-19.933 17.647,-31.826 40.001,-31.826 1.022,0 2.032,0.021 3.09,0.067 13.949,0.634 27.453,4.064 41.153,10.464 5.509,-5.423 14.651,-10.531 29.533,-10.531 1.023,0 2.042,0.022 3.116,0.069 14.216,0.694 27.458,3.834 39.454,9.348 2.314,-2.063 4.953,-3.839 7.887,-5.305 5.846,-2.924 12.378,-4.407 19.415,-4.407 3.931,0 8.083,0.47 12.338,1.394 0.169,0.038 0.33,0.075 0.488,0.115 4.895,1.224 9.785,3.105 14.873,5.727 1.244,-0.138 2.507,-0.219 3.773,-0.241 1.567,-0.12 3.132,-0.182 4.656,-0.182 8.658,0 16.448,1.897 23.816,5.798 0.164,0.087 0.313,0.17 0.461,0.255 6.828,3.902 11.877,7.559 15.363,11.135 3.511,-15.339 14.551,-24.354 30.163,-24.354 8.178,0 17.66,3.867 31.708,12.929 0.24,0.156 0.466,0.311 0.689,0.472 l 7.707,5.604 c 0.371,0.27 0.742,0.568 1.102,0.884 9.541,8.397 19.486,18.396 16.712,30.872 -0.107,0.485 -0.247,0.992 -0.412,1.496 -1.936,5.808 -6.249,9.988 -12.162,11.809 -2.355,0.838 -4.646,1.246 -6.998,1.246 -1.462,0 -2.905,-0.161 -4.323,-0.483 4.756,8.507 6.749,13.722 5.373,19.823 -1.286,6.002 -5.005,11.232 -10.207,14.353 -1.288,0.775 -2.687,1.354 -4.155,1.722 l -7.675,1.918 c -0.752,0.311 -2.194,0.942 -2.942,1.269 -0.661,0.29 -1.266,0.553 -1.825,0.794 -0.591,5.11 -2.531,10.09 -5.494,13.887 -4.164,5.33 -9.975,8.265 -16.363,8.265 -1.444,0 -2.899,-0.158 -4.328,-0.47 -4.253,-0.835 -10.198,-3.356 -14.544,-10.6 -0.904,-1.506 -1.536,-3.142 -1.88,-4.863 l -0.356,-1.807 c -0.109,-0.554 -0.232,-1.182 -0.336,-1.689 -0.392,-1.026 -0.673,-2.095 -0.835,-3.186 l -1.044,-6.951 c -0.262,-1.71 -1.05,-4.98 -3.181,-11.104 -2.558,14.26 -11.926,23.896 -26.568,26.926 -3.146,0.629 -6.318,0.943 -9.466,0.943 -14.551,0 -28.758,-6.459 -42.226,-19.196 -1.021,-0.98 -2.017,-1.96 -2.985,-2.94 -0.932,2.722 -2.227,5.324 -3.866,7.732 -6.258,9.193 -16.481,14.465 -28.046,14.465 -14.382,0 -28.368,-7.156 -41.569,-21.267 -0.197,-0.21 -0.393,-0.421 -0.588,-0.631 -3.537,10.291 -11.954,18.239 -23.359,21.092 -0.143,0.034 -0.248,0.059 -0.357,0.083 -2.541,0.579 -5.213,0.877 -7.901,0.877 -5.13,0 -10.334,-1.063 -15.574,-3.174 3.087,9.316 4.644,18.78 4.644,28.293 0,21.049 -7.011,38.303 -20.836,51.282 -6.651,6.393 -14.452,11.354 -23.696,15.05 1.148,3.565 1.045,7.491 -0.447,11.092 -4.188,10.109 -16.828,12.323 -21.345,12.323 M -49.953,-0.394 c 1.457,0.748 2.951,1.564 4.482,2.45 0.948,0.663 1.895,1.271 2.846,1.83 0.182,0.88 0.385,1.76 0.613,2.641 -2.496,-2.624 -5.144,-4.931 -7.941,-6.921 m 64.11,29.691 C 12.571,29.015 8.909,27.542 3.147,20.596 -3.009,12.657 -6.001,6.093 -6.001,0.531 c 0,-3.528 0,-6.314 8.08,-6.819 0.52,-0.036 1,-0.052 1.483,-0.052 6.488,0 15.097,2.895 25.634,8.611 0.737,3.32 1.782,6.625 3.137,9.921 C 26.501,7.639 19.505,4.66 13.489,3.908 13.103,3.859 12.716,3.836 12.333,3.836 8.606,3.836 5.19,6.082 3.749,9.601 2.161,13.48 3.37,17.943 6.7,20.489 c 5.793,4.431 7.123,7.263 7.401,8.557 0.009,0.038 0.046,0.205 0.056,0.251 M -71.7,19.55 c 5.905,2.856 9.765,6.068 11.712,9.762 -2.917,-0.398 -6.719,-3.366 -10.564,-8.28 -0.405,-0.516 -0.787,-1.011 -1.148,-1.482 M 88.423,11.163 c 1.295,2.342 2.33,4.808 3.135,7.453 0.023,0.078 0.048,0.155 0.074,0.233 1.209,3.626 1.472,6.787 0.81,9.662 -0.021,0.089 -0.041,0.177 -0.058,0.266 -0.045,0.226 -0.092,0.392 -0.133,0.509 -0.182,0.035 -0.475,0.071 -0.904,0.071 -2.547,0 -5.647,-1.588 -9.25,-4.736 2.951,-1.424 4.939,-4.307 5.213,-7.587 0.177,-2.121 0.543,-4.069 1.113,-5.871 m -356.924,17.812 c 0.915,0 1.856,0.019 2.822,0.056 2.722,0.148 5.422,0.434 8.096,0.858 0.202,1.06 0.589,2.089 1.158,3.037 11.425,19.041 27.315,44.121 42.785,68.387 0.024,0.038 0.048,0.075 0.072,0.112 1.697,2.58 3.337,5.058 4.925,7.441 -13.82,-6.76 -27.832,-15.524 -41.897,-26.222 -24.355,-18.415 -37.315,-34.818 -36.669,-46.35 0.941,-2.59 3.92,-7.319 18.708,-7.319 m 72.59,-16.702 c 6.146,2.98 12.456,6.389 18.925,10.225 14.387,8.633 28.552,20.223 42.06,34.424 14.968,15.579 23.021,30.238 23.318,42.425 0.259,9.062 -2.673,15.117 -9.505,19.672 -6.258,4.08 -14.577,6.158 -26.095,6.482 -0.631,0 -1.32,-0.002 -2.058,-0.02 -6.361,-8.378 -15.233,-21.171 -26.43,-38.119 -0.474,-0.722 -0.943,-1.438 -1.41,-2.148 0.317,-0.27 0.627,-0.555 0.928,-0.857 1.19,-1.189 2.033,-2.679 2.442,-4.311 1.308,-5.234 2.212,-10.531 2.686,-15.745 0.007,-0.074 0.012,-0.149 0.017,-0.223 1.335,-20.015 -7.023,-37.384 -24.878,-51.805 m 62.116,165.351 c 2.584,0 12.837,-1.463 15.802,-8.619 1.557,-3.759 0.701,-8.065 -2.176,-10.998 l -0.932,-0.957 c 11.597,-3.553 21.057,-8.924 28.659,-16.238 12.588,-11.803 18.971,-27.594 18.971,-46.935 0,-14.765 -4.001,-29.3 -11.882,-43.406 0.604,0.485 1.194,0.973 1.817,1.455 9.234,7.181 18.324,10.832 26.995,10.832 2.239,0 4.463,-0.247 6.607,-0.736 0.067,-0.014 0.131,-0.03 0.196,-0.045 13.845,-3.462 22.038,-15.59 20.466,-29.884 2.724,3.71 5.832,7.427 9.318,11.145 12.017,12.847 24.531,19.366 37.187,19.366 9.549,0 17.963,-4.317 23.086,-11.841 3.662,-5.38 5.168,-11.872 4.385,-18.257 3.34,4.14 7.188,8.296 11.549,12.481 12.332,11.664 25.135,17.556 38.103,17.556 2.758,0 5.534,-0.276 8.25,-0.819 14.526,-3.005 22.495,-13.435 22.495,-29.378 0,-5.49 -0.801,-11.012 -2.391,-16.551 1.74,1.965 3.625,4.121 5.672,6.493 2.355,3.462 4.119,6.857 5.691,10.942 3.047,8.126 4.883,14.091 5.432,17.658 l 1.045,6.958 c 0.119,0.8 0.342,1.576 0.66,2.309 0.125,0.57 0.309,1.503 0.463,2.291 l 0.351,1.786 c 0.209,1.043 0.596,2.043 1.143,2.956 3.207,5.344 7.475,7.207 10.617,7.81 1.029,0.23 2.072,0.346 3.11,0.346 4.502,0 8.632,-2.115 11.632,-5.956 2.995,-3.837 4.59,-9.2 4.401,-14.266 1.306,-0.509 2.963,-1.223 5.244,-2.221 1.141,-0.499 2.818,-1.232 3.492,-1.493 l 8.072,-2.017 c 0.889,-0.223 1.741,-0.575 2.526,-1.046 3.799,-2.28 6.5,-6.098 7.433,-10.497 1.041,-4.563 -0.781,-8.799 -6.625,-18.893 L 184.36,3.977 c -0.97,-1.741 -1.834,-3.334 -2.603,-4.793 5.047,4.062 11.328,9.296 14.121,11.624 0.367,0.305 0.756,0.583 1.166,0.828 2.389,1.433 4.898,2.16 7.461,2.16 1.693,0 3.369,-0.31 5.109,-0.943 4.08,-1.218 7.033,-4.034 8.352,-7.989 0.099,-0.302 0.185,-0.61 0.254,-0.921 1.855,-8.347 -4.58,-16.056 -14.815,-25.062 -0.217,-0.191 -0.439,-0.37 -0.672,-0.539 l -7.691,-5.594 c -0.141,-0.102 -0.283,-0.199 -0.428,-0.293 -12.832,-8.278 -21.607,-11.971 -28.455,-11.971 -13.822,0 -22.906,8.401 -24.926,23.047 -0.394,2.956 -0.173,6.227 0.729,10.032 -0.945,-1.063 -1.928,-2.14 -2.945,-3.225 -2.584,-2.721 -4.76,-4.881 -6.666,-6.621 -3.067,-3.371 -7.893,-6.917 -14.725,-10.821 -0.086,-0.05 -0.174,-0.098 -0.262,-0.145 -6.482,-3.433 -13.355,-5.101 -21.008,-5.101 -1.425,0 -2.896,0.06 -4.377,0.179 -1.753,0.021 -3.486,0.174 -5.15,0.452 -5.269,-2.867 -10.289,-4.879 -15.258,-6.121 -0.092,-0.023 -0.185,-0.045 -0.279,-0.065 -3.84,-0.835 -7.564,-1.258 -11.064,-1.258 -6.094,0 -11.725,1.269 -16.733,3.774 -3.734,1.867 -6.857,4.303 -9.305,7.229 -12.269,-6.337 -26.044,-9.916 -40.978,-10.645 -1.014,-0.044 -1.945,-0.063 -2.856,-0.063 -15.046,0 -23.4,5.639 -28.038,11.938 -14.361,-7.324 -28.462,-11.22 -42.904,-11.877 -0.985,-0.042 -1.919,-0.061 -2.834,-0.061 -19.356,0 -31.768,9.702 -34.054,26.619 -1.227,9.202 0.453,18.675 5.089,28.691 -13.743,-13.509 -29.467,-25.196 -46.99,-34.873 -25.898,-14.226 -52.456,-21.434 -78.953,-21.434 -38.663,0 -66.258,11.188 -82.019,33.254 -5.624,7.787 -8.371,15.51 -8.371,23.574 0,4.047 2.621,7.627 6.479,8.848 0.539,0.17 1.084,0.29 1.63,0.359 -1.379,5.56 -1.863,11.661 -1.449,18.292 0.821,12.723 6.836,26.064 18.39,40.807 29.547,37.936 70.089,62.368 120.48,72.591 0.037,0.008 0.073,0.016 0.109,0.022 5.645,1.076 11.148,2.084 16.226,2.637 12.44,11.503 23.276,17.105 33.058,17.105" />
    </g>
    <g
       transform="translate(331.3008,344.2588)"
       id="g120">
      <path
         id="path122"
         style="fill:#24265d;fill-opacity:1;fill-rule:nonzero;stroke:none"
         d="m 0,0 c 0,16.781 -5.244,30.066 -16.082,40.205 -9.789,9.44 -23.424,15.033 -40.555,17.481 l 12.586,12.935 c 1.748,1.748 -4.545,3.846 -6.992,3.846 -7.691,0 -17.48,-5.594 -29.018,-16.781 -5.244,-0.35 -11.187,-1.399 -18.529,-2.797 -48.246,-9.789 -86.703,-32.864 -115.021,-69.223 -10.139,-12.936 -15.733,-24.822 -16.432,-35.66 -1.049,-16.781 4.545,-29.018 16.781,-37.059 9.789,-6.293 21.326,-9.439 34.961,-9.439 15.733,0 30.766,4.195 45.799,12.935 24.822,14.334 36.359,32.164 34.961,53.141 -0.35,3.846 -1.049,8.74 -2.447,14.334 -1.049,1.049 -2.098,1.398 -3.147,1.398 -0.349,-1.398 -0.349,-2.447 -0.699,-3.146 -2.098,-11.537 -9.789,-23.074 -23.424,-33.912 -17.131,-13.985 -35.66,-21.326 -55.238,-22.375 -17.83,-0.699 -27.969,4.195 -31.115,14.683 -1.748,15.383 11.537,33.913 40.205,55.588 24.822,18.879 49.295,31.815 73.068,38.807 -6.642,-8.391 -13.984,-19.229 -22.725,-32.514 -17.83,-27.968 -32.164,-50.693 -42.652,-68.174 3.147,-1.048 6.293,-1.048 10.139,0.35 9.439,3.496 17.83,10.488 25.871,21.326 5.943,8.041 15.732,22.375 29.017,42.653 12.936,19.578 22.725,33.562 29.368,41.953 2.797,0.349 5.244,0.349 6.992,0.349 12.935,-0.349 23.074,-2.797 31.115,-8.041 9.44,-6.293 13.984,-15.383 13.635,-27.619 -0.35,-14.334 -8.74,-30.765 -25.871,-48.596 -13.635,-14.334 -28.319,-26.57 -44.051,-36.009 -30.066,-17.83 -56.986,-26.92 -80.76,-26.92 -12.586,0 -24.822,2.447 -36.709,7.342 -12.935,5.244 -23.074,12.585 -29.717,22.025 0,-5.943 2.098,-11.887 6.643,-18.18 13.984,-19.578 38.807,-29.367 74.467,-29.367 24.822,0 49.644,6.643 74.467,20.277 23.423,12.936 43.351,29.368 59.783,49.645 C -6.992,-36.709 0,-18.529 0,0" />
    </g>
    <g
       transform="translate(501.9033,245.6689)"
       id="g124">
      <path
         id="path126"
         style="fill:#24265d;fill-opacity:1;fill-rule:nonzero;stroke:none"
         d="M 0,0 C -5.943,5.594 -9.09,12.586 -9.789,20.977 -17.131,15.383 -20.277,8.391 -19.229,0 c 0.35,-3.146 1.749,-5.943 3.497,-8.74 -9.09,-1.049 -13.635,3.496 -13.635,13.635 0,8.041 4.195,16.781 12.236,26.22 7.342,8.041 13.985,12.237 20.627,12.237 5.594,0 9.09,-2.797 10.139,-8.041 1.049,-4.545 0.699,-9.44 -1.049,-14.684 C 10.139,12.586 5.943,5.943 0,0 m -165.711,31.465 c 6.293,8.041 12.586,11.887 18.529,11.887 7.691,0 10.488,-3.846 8.39,-11.538 v -0.349 c -2.796,-6.643 -8.74,-11.887 -17.83,-16.082 -3.845,-1.748 -8.041,-2.797 -11.886,-2.447 -3.846,0.349 -5.944,1.048 -6.293,2.796 -0.35,2.448 2.797,7.692 9.09,15.733 M 121.311,6.643 c -0.35,1.048 -1.049,1.748 -2.448,2.097 -1.748,0.699 -3.146,0.699 -4.894,-0.349 -12.586,-10.489 -19.928,-16.432 -22.375,-17.83 -6.992,-4.196 -11.188,-5.245 -12.586,-3.497 -2.098,2.448 1.049,11.188 9.439,26.221 l 8.741,15.033 c 3.845,6.643 5.943,10.838 5.593,12.237 -0.349,1.748 -1.398,3.496 -3.146,4.545 l -8.391,2.097 c -1.398,0.35 -9.439,4.196 -11.187,4.545 l -1.049,-0.699 c -2.797,1.049 -4.195,1.748 -4.545,2.098 l 1.049,4.894 C 76.91,63.629 73.414,72.02 67.82,70.621 65.723,70.271 64.324,68.873 63.275,67.125 62.576,63.629 62.227,61.531 61.877,61.182 L 60.828,54.189 C 60.129,49.645 58.031,43.002 54.885,34.611 53.137,30.066 51.039,25.871 47.893,21.326 39.262,11.315 32.34,3.696 26.781,-1.206 c -1.422,-0.798 -2.666,-1.546 -3.707,-2.29 -3.146,-1.748 -6.293,-2.797 -9.439,-2.797 -1.049,0 -2.447,0.35 -3.846,0.699 12.236,14.684 18.18,29.018 18.18,42.653 0,11.537 -4.895,18.179 -15.033,20.277 C 0.699,59.783 -12.236,55.238 -25.172,43.002 -40.152,28.634 -48.447,14.801 -50.295,1.035 -64.91,-7.438 -76.734,-11.501 -86.352,-10.838 c -11.187,0.699 -16.781,5.943 -16.781,16.082 0,8.041 3.846,16.432 11.188,25.871 6.642,8.041 12.937,12.237 18.881,12.237 7.341,0 10.138,-3.846 8.39,-11.538 -1.049,-4.894 -4.894,-9.439 -10.838,-13.984 8.391,1.049 18.879,8.041 22.026,16.082 4.545,11.537 -3.496,24.123 -17.131,24.123 -10.141,0 -20.279,-5.594 -30.418,-16.431 -12.729,-13.578 -19.731,-26.697 -21.016,-39.173 -1.741,-0.7 -3.823,-1.745 -6.253,-3.48 -12.586,-7.342 -23.073,-10.488 -31.814,-9.789 -12.236,1.049 -17.83,7.342 -16.781,18.879 2.797,-2.797 7.342,-3.846 13.285,-3.496 12.586,1.049 22.724,6.992 30.765,17.48 3.147,4.545 5.245,9.09 6.293,14.334 1.748,10.139 -3.496,18.879 -13.285,21.327 -7.691,1.748 -16.431,-1.049 -25.87,-8.391 -7.692,-5.943 -14.334,-12.586 -19.579,-20.627 -8.74,-12.936 -12.236,-24.473 -10.837,-34.961 1.748,-12.936 10.837,-19.228 27.269,-18.529 15.383,0.699 30.416,5.593 45.449,14.334 0.7,0.42 1.352,0.839 1.962,1.259 2.634,-10.938 11.226,-16.237 26.355,-15.593 14.334,0.699 27.272,4.195 38.809,10.488 1.99,1.086 4.076,2.362 6.254,3.774 1.316,-5.211 4.591,-9.199 9.824,-11.815 6.293,-3.146 13.635,-3.496 21.676,-1.748 5.593,1.398 10.838,3.846 16.082,6.992 2.097,-0.699 4.545,-1.049 6.992,-1.049 8.041,-0.699 14.684,0.7 20.627,3.846 6.223,3.557 10.461,6.687 12.726,9.306 1.844,1.659 3.998,3.795 6.498,6.426 5.245,5.594 9.09,10.489 11.538,14.334 5.593,10.139 10.138,18.879 13.285,25.522 3.146,-1.049 7.691,-2.447 12.935,-4.545 l -2.797,-6.643 -8.74,-15.732 c -5.943,-11.537 -8.74,-19.578 -8.041,-24.822 1.399,-10.139 6.643,-15.033 15.733,-15.033 4.894,0 12.586,3.496 23.423,10.488 l 7.692,5.594 c 8.74,7.691 12.586,12.935 11.887,16.082" />
    </g>
    <g
       transform="translate(189.9321,194.9346)"
       id="g128">
      <path
         id="path130"
         style="fill:#ffffff;fill-opacity:1;fill-rule:nonzero;stroke:none"
         d="M 0,0 0.168,1.026 4.087,1.12 8.454,-9.313 9.872,-0.373 8.379,0 8.547,1.026 13.306,1.12 13.119,0 11.533,-0.373 9.704,-11.943 H 7.595 l -4.553,10.506 -1.437,-9.013 1.53,-0.373 -0.205,-1.12 h -4.852 l 0.205,1.12 1.661,0.373 1.605,10.077 z" />
    </g>
    <g
       transform="translate(210.3853,189.4297)"
       id="g132">
      <path
         id="path134"
         style="fill:#ffffff;fill-opacity:1;fill-rule:nonzero;stroke:none"
         d="m 0,0 c 0,1.586 -0.877,2.146 -1.997,2.146 -2.183,0 -3.284,-2.426 -3.284,-5.132 0,-1.493 0.783,-2.146 1.904,-2.146 C -1.213,-5.132 0,-2.986 0,0 m -3.713,-6.625 c -2.128,0 -3.434,1.455 -3.434,3.695 0,3.919 2.258,6.569 5.486,6.569 2.296,0 3.509,-1.549 3.509,-3.676 0,-4.068 -2.352,-6.588 -5.561,-6.588" />
    </g>
    <g
       transform="translate(223.187,189.3359)"
       id="g136">
      <path
         id="path138"
         style="fill:#ffffff;fill-opacity:1;fill-rule:nonzero;stroke:none"
         d="m 0,0 c 2.688,0 3.49,1.643 3.49,3.341 0,1.567 -1.306,1.885 -2.034,1.885 H -0.411 L -1.25,0 Z m 1.792,6.719 c 1.679,0 3.657,-0.654 3.657,-2.987 0,-4.105 -3.135,-5.225 -5.692,-5.225 h -1.231 l -0.541,-3.377 1.604,-0.355 -0.186,-1.12 h -5.094 l 0.186,1.12 1.624,0.373 1.605,10.078 -1.512,0.373 0.168,1.026 3.452,0.094 z" />
    </g>
    <g
       transform="translate(236.0078,191.3887)"
       id="g140">
      <path
         id="path142"
         style="fill:#ffffff;fill-opacity:1;fill-rule:nonzero;stroke:none"
         d="m 0,0 c 0,0 -0.709,0.28 -1.68,0.28 -1.773,0 -3.695,-1.586 -3.695,-5.318 0,-1.307 0.485,-1.96 1.139,-1.96 2.239,0 3.862,5.039 3.862,5.039 z m -1.362,-8.397 0.746,3.433 c -0.112,-0.224 -1.736,-3.62 -4.18,-3.62 -1.4,0 -2.445,1.399 -2.445,3.266 0,4.572 2.762,6.998 5.561,6.998 1.213,0 2.09,-0.56 2.09,-0.56 L 0.97,1.493 H 1.997 L 0.653,-6.904 2.276,-7.185 2.108,-8.211 Z" />
    </g>
    <g
       transform="translate(246.1782,191.3887)"
       id="g144">
      <path
         id="path146"
         style="fill:#ffffff;fill-opacity:1;fill-rule:nonzero;stroke:none"
         d="M 0,0 C -1.959,0 -3.359,-4.852 -3.359,-4.852 L -3.956,-8.397 H -5.729 L -4.367,0 l -1.586,0.373 0.168,1.026 3.434,0.094 -0.728,-3.247 c 0.093,0.242 1.306,3.434 3.919,3.434 0.466,0 0.933,-0.187 0.933,-0.187 L 1.213,-1.306 H 0 Z" />
    </g>
    <g
       transform="translate(253.083,183.6631)"
       id="g148">
      <path
         id="path150"
         style="fill:#ffffff;fill-opacity:1;fill-rule:nonzero;stroke:none"
         d="m 0,0 c 0,0 -1.399,-0.858 -2.445,-0.858 -1.268,0 -1.885,0.746 -1.885,2.22 0,0.355 0.038,0.765 0.113,1.195 l 0.821,5.169 h -1.848 l 0.205,1.212 1.867,0.187 0.373,2.352 1.847,0.373 -0.447,-2.725 H 1.176 L 0.952,7.726 H -1.624 L -2.426,2.743 C -2.5,2.258 -2.538,1.866 -2.538,1.567 c 0,-0.671 0.205,-0.932 0.728,-0.932 0.522,0 1.512,0.373 1.512,0.373 z" />
    </g>
    <g
       transform="translate(259.8198,183.6074)"
       id="g152">
      <path
         id="path154"
         style="fill:#ffffff;fill-opacity:1;fill-rule:nonzero;stroke:none"
         d="m 0,0 c -1.586,-3.732 -2.37,-5.095 -4.348,-5.095 -1.064,0 -2.109,0.299 -2.109,0.299 l 0.374,1.193 c 0,0 0.746,-0.092 1.399,-0.092 1.306,0 1.81,0.634 2.557,2.351 L -4.553,7.8 -5.841,8.154 -5.636,9.181 -2.818,9.274 -1.25,2.426 -1.083,1.156 1.68,7.818 0.28,8.154 0.448,9.181 4.553,9.274 4.367,8.154 3.322,7.856 Z" />
    </g>
    <g
       transform="translate(272.1743,194.6543)"
       id="g156">
      <path
         id="path158"
         style="fill:#ffffff;fill-opacity:1;fill-rule:nonzero;stroke:none"
         d="m 0,0 c -0.597,0 -1.026,0.336 -1.026,0.934 0,0.877 0.429,1.679 1.306,1.679 0.597,0 1.026,-0.336 1.026,-0.933 C 1.306,0.803 0.877,0 0,0 m 0.821,-11.477 -3.434,-0.186 1.344,8.397 -1.586,0.373 0.187,1.027 3.415,0.094 -1.344,-8.398 1.586,-0.28 z" />
    </g>
    <g
       transform="translate(274.9736,185.9775)"
       id="g160">
      <path
         id="path162"
         style="fill:#ffffff;fill-opacity:1;fill-rule:nonzero;stroke:none"
         d="m 0,0 h 1.213 v -1.587 c 0.018,0 0.579,-0.224 1.418,-0.224 1.213,0 2.053,0.504 2.053,1.531 0,1.772 -4.105,1.586 -4.105,4.385 0,2.053 1.716,2.986 3.769,2.986 1.362,0 2.762,-0.467 2.762,-0.467 L 6.662,4.105 H 5.449 L 5.337,5.561 c 0,0 -0.41,0.168 -1.213,0.168 C 3.098,5.729 2.351,5.318 2.351,4.385 2.351,2.519 6.55,2.612 6.55,0 c 0,-1.96 -1.679,-3.173 -4.199,-3.173 -1.493,0 -2.799,0.467 -2.799,0.467 z" />
    </g>
    <g
       transform="translate(299.2524,192.1357)"
       id="g164">
      <path
         id="path166"
         style="fill:#ffffff;fill-opacity:1;fill-rule:nonzero;stroke:none"
         d="m 0,0 h -1.083 l -0.223,2.053 c -0.318,0.13 -1.288,0.466 -2.501,0.466 -2.985,0 -4.889,-3.303 -4.889,-6.755 0,-2.053 1.175,-3.415 2.948,-3.415 1.922,0 3.509,0.951 4.143,1.418 l 0.672,-1.101 c -0.672,-0.542 -2.669,-1.997 -5.188,-1.997 -2.893,0 -4.628,1.848 -4.628,4.74 0,5.113 3.117,8.696 7.315,8.696 2.053,0 3.938,-0.933 3.938,-0.933 z" />
    </g>
    <g
       transform="translate(307.0718,189.4297)"
       id="g168">
      <path
         id="path170"
         style="fill:#ffffff;fill-opacity:1;fill-rule:nonzero;stroke:none"
         d="m 0,0 c 0,1.586 -0.877,2.146 -1.997,2.146 -2.183,0 -3.284,-2.426 -3.284,-5.132 0,-1.493 0.783,-2.146 1.904,-2.146 C -1.213,-5.132 0,-2.986 0,0 m -3.713,-6.625 c -2.128,0 -3.434,1.455 -3.434,3.695 0,3.919 2.258,6.569 5.486,6.569 2.296,0 3.509,-1.549 3.509,-3.676 0,-4.068 -2.352,-6.588 -5.561,-6.588" />
    </g>
    <g
       transform="translate(317.7461,189.4297)"
       id="g172">
      <path
         id="path174"
         style="fill:#ffffff;fill-opacity:1;fill-rule:nonzero;stroke:none"
         d="m 0,0 c 0.037,0.279 0.075,0.56 0.075,0.821 0,0.691 -0.224,1.232 -0.971,1.232 -2.351,0 -3.788,-5.132 -3.788,-5.132 l -0.541,-3.359 h -1.773 l 1.344,8.397 -1.568,0.373 0.168,1.026 3.396,0.094 -0.802,-3.62 c 0.075,0.205 1.474,3.807 4.311,3.807 1.474,0 1.997,-0.877 1.997,-2.277 0,-0.354 -0.038,-0.747 -0.094,-1.157 0.485,1.139 1.717,3.434 4.068,3.434 1.493,0 2.053,-0.933 2.053,-2.295 0,-0.336 -0.037,-0.691 -0.093,-1.065 L 6.923,-4.945 8.51,-5.226 8.342,-6.252 4.908,-6.438 5.972,0 c 0.037,0.279 0.074,0.56 0.074,0.802 0,0.71 -0.224,1.251 -0.97,1.251 -2.388,0 -3.845,-5.263 -3.845,-5.263 L 0.728,-6.438 h -1.773 z" />
    </g>
    <g
       transform="translate(330.2124,184.4844)"
       id="g176">
      <path
         id="path178"
         style="fill:#ffffff;fill-opacity:1;fill-rule:nonzero;stroke:none"
         d="m 0,0 c 0,0 0.784,-0.28 1.717,-0.28 1.549,0 3.676,1.642 3.676,5.225 0,1.045 -0.354,2.053 -1.25,2.053 -2.333,0 -3.77,-5.039 -3.77,-5.039 z m 0.597,4.964 c 0.075,0.205 1.474,3.62 4.199,3.62 1.642,0 2.463,-1.586 2.463,-3.359 0,-4.255 -2.687,-6.905 -5.635,-6.905 -0.784,0 -1.418,0.224 -1.829,0.449 L -0.69,-4.292 0.728,-4.759 0.541,-5.785 h -4.758 l 0.168,1.026 1.586,0.467 1.791,11.196 -1.53,0.373 0.168,1.027 3.378,0.093 z" />
    </g>
    <g
       transform="translate(342.623,183.1777)"
       id="g180">
      <path
         id="path182"
         style="fill:#ffffff;fill-opacity:1;fill-rule:nonzero;stroke:none"
         d="m 0,0 -3.471,-0.187 2.053,12.876 -1.568,0.374 0.168,1.027 3.452,0.093 L -1.418,1.307 0.167,1.026 Z" />
    </g>
    <g
       transform="translate(350.8335,190.4561)"
       id="g184">
      <path
         id="path186"
         style="fill:#ffffff;fill-opacity:1;fill-rule:nonzero;stroke:none"
         d="m 0,0 c 0,0.821 -0.448,1.213 -1.399,1.213 -1.363,0 -2.725,-1.362 -3.21,-3.322 C -1.959,-2.109 0,-1.231 0,0 m 0.84,-6.271 c 0,0 -1.978,-1.38 -4.18,-1.38 -2.053,0 -3.359,1.306 -3.359,3.359 0,3.862 2.426,6.904 5.393,6.904 1.885,0 3.079,-0.952 3.079,-2.425 0,-2.147 -2.688,-3.602 -6.55,-3.602 -0.037,-0.28 -0.056,-0.561 -0.056,-0.803 0,-1.325 0.653,-1.94 2.052,-1.94 1.363,0 3.061,0.84 3.061,0.84 z" />
    </g>
    <g
       transform="translate(358.895,183.6631)"
       id="g188">
      <path
         id="path190"
         style="fill:#ffffff;fill-opacity:1;fill-rule:nonzero;stroke:none"
         d="m 0,0 c 0,0 -1.399,-0.858 -2.445,-0.858 -1.268,0 -1.885,0.746 -1.885,2.22 0,0.355 0.038,0.765 0.113,1.195 l 0.821,5.169 h -1.848 l 0.205,1.212 1.867,0.187 0.373,2.352 1.847,0.373 -0.447,-2.725 H 1.176 L 0.952,7.726 H -1.624 L -2.426,2.743 C -2.5,2.258 -2.538,1.866 -2.538,1.567 c 0,-0.671 0.205,-0.932 0.728,-0.932 0.522,0 1.512,0.373 1.512,0.373 z" />
    </g>
    <g
       transform="translate(366.9199,190.4561)"
       id="g192">
      <path
         id="path194"
         style="fill:#ffffff;fill-opacity:1;fill-rule:nonzero;stroke:none"
         d="m 0,0 c 0,0.821 -0.448,1.213 -1.4,1.213 -1.362,0 -2.725,-1.362 -3.209,-3.322 C -1.96,-2.109 0,-1.231 0,0 m 0.84,-6.271 c 0,0 -1.979,-1.38 -4.181,-1.38 -2.053,0 -3.359,1.306 -3.359,3.359 0,3.862 2.427,6.904 5.393,6.904 1.885,0 3.079,-0.952 3.079,-2.425 0,-2.147 -2.687,-3.602 -6.549,-3.602 -0.037,-0.28 -0.057,-0.561 -0.057,-0.803 0,-1.325 0.653,-1.94 2.053,-1.94 1.362,0 3.06,0.84 3.06,0.84 z" />
    </g>
    <g
       transform="translate(381.7549,182.9912)"
       id="g196">
      <path
         id="path198"
         style="fill:#ffffff;fill-opacity:1;fill-rule:nonzero;stroke:none"
         d="M 0,0 -0.858,6.345 -1.101,5.412 -3.19,0 H -5.3 l -1.344,8.491 -1.305,0.28 0.168,1.026 2.929,0.094 0.933,-8.119 3.042,8.025 L 0.448,9.891 1.4,1.772 4.144,8.416 2.557,8.771 2.725,9.797 6.998,9.891 6.812,8.771 5.897,8.547 2.146,0 Z" />
    </g>
    <g
       transform="translate(391.7021,194.6543)"
       id="g200">
      <path
         id="path202"
         style="fill:#ffffff;fill-opacity:1;fill-rule:nonzero;stroke:none"
         d="m 0,0 c -0.597,0 -1.026,0.336 -1.026,0.934 0,0.877 0.429,1.679 1.306,1.679 0.598,0 1.027,-0.336 1.027,-0.933 C 1.307,0.803 0.878,0 0,0 m 0.821,-11.477 -3.433,-0.186 1.343,8.397 -1.585,0.373 0.186,1.027 3.415,0.094 -1.344,-8.398 1.586,-0.28 z" />
    </g>
    <g
       transform="translate(399.7275,183.6631)"
       id="g204">
      <path
         id="path206"
         style="fill:#ffffff;fill-opacity:1;fill-rule:nonzero;stroke:none"
         d="m 0,0 c 0,0 -1.4,-0.858 -2.445,-0.858 -1.269,0 -1.885,0.746 -1.885,2.22 0,0.355 0.037,0.765 0.112,1.195 l 0.822,5.169 h -1.848 l 0.205,1.212 1.866,0.187 0.373,2.352 1.848,0.373 L -1.4,9.125 H 1.175 L 0.951,7.726 H -1.624 L -2.427,2.743 C -2.501,2.258 -2.538,1.866 -2.538,1.567 c 0,-0.671 0.205,-0.932 0.727,-0.932 0.523,0 1.512,0.373 1.512,0.373 z" />
    </g>
    <g
       transform="translate(404.2246,189.2617)"
       id="g208">
      <path
         id="path210"
         style="fill:#ffffff;fill-opacity:1;fill-rule:nonzero;stroke:none"
         d="M 0,0 C 0.074,0.205 1.567,3.807 4.404,3.807 5.896,3.807 6.438,2.893 6.438,1.549 6.438,1.213 6.4,0.84 6.345,0.447 L 5.505,-4.777 7.072,-5.058 6.904,-6.084 3.489,-6.271 4.554,0.168 c 0.037,0.279 0.074,0.56 0.074,0.821 0,0.691 -0.224,1.232 -0.971,1.232 -2.426,0 -3.9,-5.132 -3.9,-5.132 l -0.615,-3.36 h -1.774 l 2.053,12.876 -1.567,0.374 0.167,1.027 3.416,0.093 z" />
    </g>
    <g
       transform="translate(419.957,189.4297)"
       id="g212">
      <path
         id="path214"
         style="fill:#ffffff;fill-opacity:1;fill-rule:nonzero;stroke:none"
         d="m 0,0 c 0,1.586 -0.878,2.146 -1.997,2.146 -2.184,0 -3.284,-2.426 -3.284,-5.132 0,-1.493 0.783,-2.146 1.903,-2.146 C -1.213,-5.132 0,-2.986 0,0 m -3.714,-6.625 c -2.128,0 -3.433,1.455 -3.433,3.695 0,3.919 2.257,6.569 5.486,6.569 2.295,0 3.508,-1.549 3.508,-3.676 0,-4.068 -2.351,-6.588 -5.561,-6.588" />
    </g>
    <g
       transform="translate(430.5,186.6113)"
       id="g216">
      <path
         id="path218"
         style="fill:#ffffff;fill-opacity:1;fill-rule:nonzero;stroke:none"
         d="m 0,0 c -0.093,-0.224 -1.66,-3.807 -4.479,-3.807 -1.511,0 -2.071,0.896 -2.071,2.277 0,0.747 0.112,1.456 0.951,6.307 l -1.586,0.373 0.168,1.027 3.415,0.094 c -0.97,-5.86 -1.1,-6.756 -1.1,-7.26 0,-0.709 0.223,-1.232 0.97,-1.232 2.482,0 3.975,5.132 3.975,5.132 l 0.56,3.36 H 2.575 L 1.231,-2.127 2.837,-2.407 2.669,-3.434 -0.765,-3.62 Z" />
    </g>
    <g
       transform="translate(440.373,183.6631)"
       id="g220">
      <path
         id="path222"
         style="fill:#ffffff;fill-opacity:1;fill-rule:nonzero;stroke:none"
         d="m 0,0 c 0,0 -1.4,-0.858 -2.445,-0.858 -1.269,0 -1.885,0.746 -1.885,2.22 0,0.355 0.037,0.765 0.112,1.195 l 0.822,5.169 h -1.848 l 0.205,1.212 1.866,0.187 0.373,2.352 1.848,0.373 L -1.4,9.125 H 1.175 L 0.951,7.726 H -1.624 L -2.427,2.743 C -2.501,2.258 -2.538,1.866 -2.538,1.567 c 0,-0.671 0.205,-0.932 0.727,-0.932 0.523,0 1.512,0.373 1.512,0.373 z" />
    </g>
    <g
       transform="translate(451.7744,190.4561)"
       id="g224">
      <path
         id="path226"
         style="fill:#ffffff;fill-opacity:1;fill-rule:nonzero;stroke:none"
         d="m 0,0 c 1.194,0 3.135,0.504 3.135,2.557 0,1.007 -0.783,1.548 -1.847,1.548 H -0.709 L -1.362,0 Z m -0.56,-5.972 c 2.127,0 3.229,1.213 3.229,2.576 0,1.53 -1.008,1.997 -2.856,1.997 h -1.399 l -0.709,-4.573 z m -3.359,11.477 3.452,0.094 h 1.942 c 1.959,0 3.638,-0.897 3.638,-2.856 0,-2.109 -1.604,-3.136 -2.911,-3.433 1.4,-0.318 2.463,-1.065 2.463,-2.52 0,-2.78 -2.183,-4.255 -5.038,-4.255 h -5.636 l 0.187,1.12 1.661,0.373 1.586,10.077 -1.512,0.374 z" />
    </g>
    <g
       transform="translate(465.3604,191.3887)"
       id="g228">
      <path
         id="path230"
         style="fill:#ffffff;fill-opacity:1;fill-rule:nonzero;stroke:none"
         d="m 0,0 c 0,0 -0.709,0.28 -1.68,0.28 -1.772,0 -3.695,-1.586 -3.695,-5.318 0,-1.307 0.485,-1.96 1.139,-1.96 2.239,0 3.863,5.039 3.863,5.039 z m -1.362,-8.397 0.746,3.433 c -0.112,-0.224 -1.736,-3.62 -4.18,-3.62 -1.399,0 -2.445,1.399 -2.445,3.266 0,4.572 2.762,6.998 5.561,6.998 1.213,0 2.09,-0.56 2.09,-0.56 L 0.971,1.493 H 1.997 L 0.653,-6.904 2.276,-7.185 2.108,-8.211 Z" />
    </g>
    <g
       transform="translate(473.0859,183.1777)"
       id="g232">
      <path
         id="path234"
         style="fill:#ffffff;fill-opacity:1;fill-rule:nonzero;stroke:none"
         d="m 0,0 -3.471,-0.187 2.053,12.876 -1.567,0.374 0.168,1.027 3.452,0.093 L -1.418,1.307 0.168,1.026 Z" />
    </g>
    <g
       transform="translate(478.5166,183.1777)"
       id="g236">
      <path
         id="path238"
         style="fill:#ffffff;fill-opacity:1;fill-rule:nonzero;stroke:none"
         d="m 0,0 -3.471,-0.187 2.053,12.876 -1.567,0.374 0.168,1.027 3.452,0.093 L -1.418,1.307 0.168,1.026 Z" />
    </g>
    <g
       transform="translate(487.251,189.4297)"
       id="g240">
      <path
         id="path242"
         style="fill:#ffffff;fill-opacity:1;fill-rule:nonzero;stroke:none"
         d="m 0,0 c 0,1.586 -0.878,2.146 -1.997,2.146 -2.184,0 -3.284,-2.426 -3.284,-5.132 0,-1.493 0.783,-2.146 1.903,-2.146 C -1.214,-5.132 0,-2.986 0,0 m -3.714,-6.625 c -2.128,0 -3.433,1.455 -3.433,3.695 0,3.919 2.257,6.569 5.486,6.569 2.295,0 3.508,-1.549 3.508,-3.676 0,-4.068 -2.351,-6.588 -5.561,-6.588" />
    </g>
    <g
       transform="translate(497.5146,189.4297)"
       id="g244">
      <path
         id="path246"
         style="fill:#ffffff;fill-opacity:1;fill-rule:nonzero;stroke:none"
         d="m 0,0 c 0,1.586 -0.878,2.146 -1.997,2.146 -2.184,0 -3.284,-2.426 -3.284,-5.132 0,-1.493 0.783,-2.146 1.903,-2.146 C -1.214,-5.132 0,-2.986 0,0 m -3.714,-6.625 c -2.128,0 -3.433,1.455 -3.433,3.695 0,3.919 2.257,6.569 5.486,6.569 2.295,0 3.508,-1.549 3.508,-3.676 0,-4.068 -2.351,-6.588 -5.561,-6.588" />
    </g>
    <g
       transform="translate(508.3936,189.4297)"
       id="g248">
      <path
         id="path250"
         style="fill:#ffffff;fill-opacity:1;fill-rule:nonzero;stroke:none"
         d="m 0,0 c 0.037,0.279 0.075,0.56 0.075,0.821 0,0.691 -0.224,1.232 -0.971,1.232 -2.425,0 -3.993,-5.132 -3.993,-5.132 l -0.542,-3.359 h -1.772 l 1.344,8.397 -1.568,0.373 0.168,1.026 3.415,0.094 -0.84,-3.62 c 0.093,0.205 1.699,3.807 4.535,3.807 1.511,0 2.071,-0.933 2.071,-2.295 0,-0.336 -0.037,-0.691 -0.093,-1.065 L 0.971,-4.945 2.557,-5.226 2.389,-6.252 -1.045,-6.438 Z" />
    </g>
    <g
       transform="translate(512.667,185.9775)"
       id="g252">
      <path
         id="path254"
         style="fill:#ffffff;fill-opacity:1;fill-rule:nonzero;stroke:none"
         d="m 0,0 h 1.213 v -1.587 c 0.018,0 0.578,-0.224 1.418,-0.224 1.213,0 2.053,0.504 2.053,1.531 0,1.772 -4.106,1.586 -4.106,4.385 0,2.053 1.717,2.986 3.77,2.986 1.362,0 2.762,-0.467 2.762,-0.467 L 6.662,4.105 H 5.449 L 5.337,5.561 c 0,0 -0.41,0.168 -1.213,0.168 C 3.098,5.729 2.352,5.318 2.352,4.385 2.352,2.519 6.55,2.612 6.55,0 c 0,-1.96 -1.68,-3.173 -4.198,-3.173 -1.494,0 -2.8,0.467 -2.8,0.467 z" />
    </g>
    <g
       transform="translate(523.7139,196.9873)"
       id="g256">
      <path
         id="path258"
         style="fill:#ffffff;fill-opacity:1;fill-rule:nonzero;stroke:none"
         d="M 0,0 H 2.109 L 0.317,-9.331 -1.231,-9.424 Z m -0.84,-11.57 c 0.635,0 1.027,-0.336 1.027,-1.027 0,-0.783 -0.466,-1.586 -1.456,-1.586 -0.634,0 -1.007,0.336 -1.007,1.027 0,0.821 0.485,1.586 1.436,1.586" />
    </g>
  </g>
</svg>
